<svg xmlns="http://www.w3.org/2000/svg" viewBox="0 0 176 46.95"><defs><style>.cls-1{isolation:isolate;}.cls-2{fill:#15b2cc;}.cls-3,.cls-4{fill:#10258c;}.cls-4{mix-blend-mode:multiply;}</style></defs><title>LOGO AKDEMIC</title><g class="cls-1"><g id="Layer_1" data-name="Layer 1"><path class="cls-2" d="M176,47H0V0H176ZM2.48,44.46h171v-42H2.48Z"/><path class="cls-2" d="M59.78,9.28h8.13c8.44,0,14.1,6.31,14.1,14.64S76.2,38.47,67.87,38.47H59.78Zm5.69,24.24h.93c7,0,9.72-3.87,9.72-9.64,0-6.35-3.25-9.64-9.72-9.64h-.93Z"/><path class="cls-2" d="M90.49,14.24v6.42h9.06v5H90.49v7.9H99.9v4.95H84.8V9.28H99.9v5Z"/><path class="cls-2" d="M125.32,20.62h-.08l-6.47,18.09h-1.93L110.6,20.62h-.08L108,38.33h-5.6L107.19,9h3.94l7,18.81L124.9,9h4l4.28,29.29h-5.6Z"/><path class="cls-2" d="M141.75,38.47h-5.69V9.28h5.69Z"/><path class="cls-2" d="M165.41,17A8.44,8.44,0,0,0,159,13.93c-5.46,0-8.59,5-8.59,10.06s3.25,9.84,8.56,9.84a8.91,8.91,0,0,0,6.46-3.1v6.78a15.42,15.42,0,0,1-6.62,1.74c-8.21,0-14.29-7.09-14.29-15.14,0-8.29,5.85-15.6,14.41-15.6a13.49,13.49,0,0,1,6.5,1.7Z"/><rect class="cls-3" x="15.86" y="27.19" width="18.47" height="5.91"/><polygon class="cls-4" points="33.25 33.1 27.32 33.1 24.93 27.19 30.92 27.19 33.25 33.1"/><path class="cls-3" d="M50.19,9.15H57.8l-8,14.2,7.36,15.13H49.55l-6.63-14v14H35.65V9.15h7.27V22H43Z"/><polygon class="cls-4" points="35.61 9.2 35.7 18.48 42.89 34.51 42.89 24.31 35.61 9.2"/><polygon class="cls-3" points="29.09 9.13 22.65 9.13 10.59 38.48 18.48 38.48 26.09 17.51 26.18 17.51 35.01 38.48 42.05 38.48 29.09 9.13"/><polygon class="cls-4" points="22.68 9.1 26.14 17.39 23.59 24.4 20.04 15.48 22.68 9.1"/><polyline class="cls-2" points="34.98 38.47 42.1 38.47 29.11 9.15 22.68 9.15 34.98 38.47"/><polyline class="cls-2" points="49.52 38.47 57.59 38.47 42.88 9.15 35.59 9.15 49.52 38.47"/></g></g></svg>