<svg id="Layer_1" data-name="Layer 1" xmlns="http://www.w3.org/2000/svg" viewBox="0 0 226.15 51.16"><defs><style>.cls-1{fill:#f9d614;}.cls-2{fill:#e1c112;}.cls-3{fill:#dabc12;}.cls-4{fill:#e4c512;}.cls-5{fill:#dabb11;}.cls-6{fill:#e3c312;}.cls-7{fill:#caae10;}.cls-8{fill:#c2a810;}.cls-9{fill:#eac913;}.cls-10{fill:#e5c512;}.cls-11{fill:#d9ba11;}.cls-12{fill:#edcc13;}.cls-13{fill:#d7b911;}.cls-14{fill:#bea30f;}.cls-15{fill:#0b0302;}.cls-16{fill:#f7d414;}.cls-17{fill:#f7d514;}.cls-18{fill:#f5d314;}.cls-19{fill:#f6d414;}.cls-20{fill:#f6d314;}.cls-21{fill:#f4d214;}.cls-22{fill:#f4d114;}.cls-23{fill:#d3b411;}.cls-24{fill:#504007;}.cls-25{fill:#8d770c;}.cls-26{fill:#016b01;}.cls-27{fill:#0c0402;}.cls-28{fill:#0d0402;}.cls-29{fill:#0d0502;}.cls-30{fill:#0e0602;}.cls-31{fill:#0f0702;}.cls-32{fill:#110902;}.cls-33{fill:#120903;}.cls-34{fill:#180f03;}.cls-35{fill:#170d03;}.cls-36{fill:#191003;}.cls-37{fill:#150c03;}.cls-38{fill:#140b03;}.cls-39{fill:#fcd20b;}.cls-40{fill:#f5cf0b;}.cls-41{fill:#94a807;}.cls-42{fill:#026b01;}.cls-43{fill:#036b01;}.cls-44{fill:#046c01;}.cls-45{fill:#066d01;}.cls-46{fill:#137202;}.cls-47{fill:#9baa07;}.cls-48{fill:#036c01;}.cls-49{fill:#f4cf0b;}.cls-50{fill:#fad10b;}.cls-51{fill:#f9d10b;}</style></defs><title>Artboard 3</title><path class="cls-1" d="M10.46,27.51a7.3,7.3,0,0,0,.2-1.44,24.63,24.63,0,0,1,1.72-6.32,24,24,0,0,1,9-11.05,19,19,0,0,1,8.28-3c.17,0,.37.07.52-.08h.15c.14.08.29,0,.44,0s.26,0,.38,0h1a.78.78,0,0,0,.52,0H33a7.49,7.49,0,0,0,1.36.21,18.34,18.34,0,0,1,6.75,2.4A24.68,24.68,0,0,1,52.76,24.4a16.84,16.84,0,0,1,.45,3.11c0,.06,0,.13.07.15V28a.78.78,0,0,0,0,.52v1.41a.78.78,0,0,0,0,.52v.52c-.07.57-.07,1.15-.13,1.73a13.1,13.1,0,0,1-1,3.57A12.88,12.88,0,0,1,48.84,41,15.53,15.53,0,0,1,44,43.94a25.06,25.06,0,0,1-6,1.48c-.83.1-1.68.09-2.52.13-.13,0-.27,0-.4,0h-.59c-.12-.08-.26,0-.39,0h-.35c-.15,0-.31,0-.45,0H32.17c-.12-.08-.26,0-.39,0h-.35c-.15,0-.31,0-.45,0h-.67a3.24,3.24,0,0,0-1-.06,22.47,22.47,0,0,1-5.06-.62A21.2,21.2,0,0,1,16,41.34a13.7,13.7,0,0,1-5.39-8.47,15.26,15.26,0,0,1-.15-1.81c0-.12,0-.25,0-.36v-.3a.78.78,0,0,0,0-.52V28.55a1,1,0,0,0,0-.59Z"/><path class="cls-2" d="M10.46,28a.57.57,0,0,1,0,.59Z"/><path class="cls-3" d="M10.46,29.89a.46.46,0,0,1,0,.52Z"/><path class="cls-4" d="M53.28,30.41a.46.46,0,0,1,0-.52Z"/><path class="cls-5" d="M53.28,28.48a.46.46,0,0,1,0-.52Z"/><path class="cls-6" d="M32.61,5.58a.45.45,0,0,1-.52,0Z"/><path class="cls-7" d="M30.75,5.65c-.15,0-.31.06-.44-.07h.45Q30.83,5.62,30.75,5.65Z"/><path class="cls-8" d="M31,45.58c.13-.13.29-.06.44-.07s.05,0,0,.07Z"/><path class="cls-9" d="M33.28,45.58c.14-.11.3-.06.45-.07s0,0,0,.07Z"/><path class="cls-10" d="M30.75,5.65V5.58h.37C31,5.68,30.88,5.65,30.75,5.65Z"/><path class="cls-11" d="M31.42,45.58v-.07h.37q.08,0,0,.07Z"/><path class="cls-12" d="M31.8,45.58s0,0,0-.07.26,0,.37.07Z"/><path class="cls-13" d="M33.73,45.58s0,0,0-.07h.37s0,0,0,.07Z"/><path class="cls-14" d="M34.1,45.58s0,0,0-.07.26-.05.37.07Z"/><path class="cls-15" d="M32.95,45a36.35,36.35,0,0,1-10.65-1.41A17.87,17.87,0,0,1,15.57,40a12.7,12.7,0,0,1-4.3-8,23.23,23.23,0,0,1,3.31-15.26,22.23,22.23,0,0,1,7-7.43A17.75,17.75,0,0,1,32.43,6.2,18.45,18.45,0,0,1,42.58,9.86,24.16,24.16,0,0,1,52.27,25a19.48,19.48,0,0,1-.33,9.56,12.63,12.63,0,0,1-6.42,7.77,22.12,22.12,0,0,1-7.41,2.25A40.27,40.27,0,0,1,32.95,45Z"/><path class="cls-1" d="M32.67,40.58a28.28,28.28,0,0,1-7.73-1,13.72,13.72,0,0,1-6.49-3.7,10,10,0,0,1-2.63-5.66,17.52,17.52,0,0,1,2-10.48,17.07,17.07,0,0,1,5.92-6.72,13.82,13.82,0,0,1,15.2-.46,17.86,17.86,0,0,1,7.4,8.18,17.24,17.24,0,0,1,1.73,8.09,11.68,11.68,0,0,1-2,6.54,10.79,10.79,0,0,1-5,3.77A23,23,0,0,1,32.67,40.58Z"/><path class="cls-16" d="M31.46,42.5c0,.32,0,.63,0,1,0,.13,0,.29-.19.28s-.15-.16-.15-.27q0-.63,0-1.26c0-.14,0-.32.18-.34s.34,0,.44.19a5.51,5.51,0,0,0,.59,1q0-.47,0-.95c0-.14,0-.24.21-.23s.14.14.14.24q0,.67,0,1.34c0,.12,0,.27-.15.29a.34.34,0,0,1-.41-.16l-.55-1.08Z"/><path class="cls-16" d="M40.06,42.35a.86.86,0,0,1-1,.89c-.49,0-.83-.45-.82-1.08a.89.89,0,0,1,1-.89C39.76,41.28,40.07,41.7,40.06,42.35Z"/><path class="cls-16" d="M27.23,9.73a.94.94,0,0,1-.91,1,1,1,0,0,1-.93-1,.92.92,0,0,1,.89-1A1,1,0,0,1,27.23,9.73Z"/><path class="cls-17" d="M46.48,17.84a.92.92,0,0,1-.92-.91,1,1,0,0,1,1.07-1,.91.91,0,0,1,.91.88A1.05,1.05,0,0,1,46.48,17.84Z"/><path class="cls-16" d="M20,13.21l.75.8c.09.09.22.17,0,.32s-.23,0-.31-.11c-.29-.32-.58-.64-.86-1-.07-.08-.26-.13-.13-.28s.2-.23.41-.16c.39.14.8.24,1.28.38l-.74-.79c-.09-.1-.16-.17,0-.29s.21,0,.29.08c.31.34.62.68.92,1,.06.07.22.12.11.26a.3.3,0,0,1-.35.12C21,13.46,20.55,13.35,20,13.21Z"/><path class="cls-16" d="M28.86,9.32c-.11-.41-.19-.75-.3-1.09,0-.15,0-.19.13-.23s.19,0,.22.15c.1.46.23.91.34,1.37,0,.1.11.22,0,.29a.28.28,0,0,1-.37-.06c-.27-.27-.56-.53-.84-.78,0,0-.08-.14-.19-.1.09.34.18.68.28,1,0,.13.05.21-.11.24s-.19,0-.22-.16c-.1-.46-.23-.91-.34-1.37,0-.09-.13-.22,0-.28s.26-.12.4,0C28.17,8.66,28.49,9,28.86,9.32Z"/><path class="cls-16" d="M42.77,12.11l-.7.85c-.08.1-.14.21-.29.08s-.05-.2,0-.3c.29-.34.58-.68.87-1,.07-.08.1-.27.27-.17s.26.17.21.38c-.09.41-.13.83-.21,1.33l.69-.85c.07-.08.12-.2.26-.07s.11.18,0,.3c-.31.35-.61.71-.92,1.07-.06.07-.09.21-.22.14a.29.29,0,0,1-.19-.32C42.65,13.09,42.71,12.62,42.77,12.11Z"/><path class="cls-18" d="M14.54,29c0,.21,0,.31-.28.29-.44,0-.89,0-1.33,0-.1,0-.25.07-.27-.1s-.06-.29.12-.39l1.08-.63c0-.18-.13-.09-.2-.09a2.34,2.34,0,0,0-.61,0h-.15c-.13,0-.24,0-.24-.18s.11-.18.24-.18l1.41,0c.09,0,.22-.05.23.1s0,.24-.12.32c-.36.22-.71.45-1.06.68,0,.2.16.09.24.1A4.39,4.39,0,0,1,14.54,29Z"/><path class="cls-16" d="M35.41,8.68c-.08.92-.74,1.21-1.63.93-.13,0-.08-.12-.07-.2l.24-1.49c0-.07,0-.18.1-.16.42.07.87,0,1.19.41A.9.9,0,0,1,35.41,8.68Z"/><path class="cls-17" d="M17.37,18.62a2,2,0,0,1-.42.79c-.08.12-.15,0-.22,0-.43-.25-.85-.5-1.28-.74-.15-.08-.16-.15-.07-.28s.17-.3.27-.44a.82.82,0,0,1,1-.39A1.09,1.09,0,0,1,17.37,18.62Z"/><path class="cls-17" d="M18.64,14.24a1,1,0,0,1,.86,1.5c-.38.61-.46.62-1,.16a8.94,8.94,0,0,0-.74-.62c-.2-.14-.18-.24,0-.4S18.25,14.23,18.64,14.24Z"/><path class="cls-19" d="M45.17,16.51c-.28-.17-.29-.37-.11-.59a.84.84,0,0,0,.1-.2.35.35,0,0,0-.08-.44c-.16-.12-.22.09-.33.14s-.24.39-.46.08c-.07-.1-.08-.15,0-.24q.61-.48,1.21-1c.11-.09.17-.06.24,0s.3.36.43.56a.45.45,0,0,1,.05.52.43.43,0,0,1-.51.21c-.17-.05-.19,0-.21.15A2.23,2.23,0,0,1,45.17,16.51Z"/><path class="cls-17" d="M48.84,19.25a.86.86,0,0,1-.59.81.94.94,0,0,1-1.11-.27,5.31,5.31,0,0,1-.33-.61.13.13,0,0,1,.06-.2l1.42-.71c.07,0,.13-.07.18,0A2.24,2.24,0,0,1,48.84,19.25Z"/><path class="cls-19" d="M49.3,28.88c-.11-.31,0-.45.26-.52a.91.91,0,0,0,.29-.15.33.33,0,0,0,.11-.37c0-.15-.19-.07-.29-.07a1.47,1.47,0,0,0-.26,0c-.15,0-.2,0-.21-.19s0-.22.17-.22l1.56,0c.11,0,.17,0,.17.15a7.75,7.75,0,0,1,0,.78.45.45,0,0,1-.79.26c-.11-.15-.16-.15-.29,0A1.68,1.68,0,0,1,49.3,28.88Z"/><path class="cls-16" d="M15.79,21.86c0,.32-.14.48-.44.44a.87.87,0,0,0-.29,0,.33.33,0,0,0-.27.32c0,.16.16.11.25.16a.85.85,0,0,0,.24.08c.14,0,.18.09.13.23s-.11.2-.27.14l-1.4-.48c-.11,0-.19-.06-.15-.2a5.35,5.35,0,0,1,.29-.76.43.43,0,0,1,.81,0c.08.18.14.22.3.11a.52.52,0,0,1,.22,0Z"/><path class="cls-16" d="M26.84,41.64l-.26,1.49c0,.14-.11.17-.24.15s-.16-.09-.14-.21a1.47,1.47,0,0,1,0-.26c.15-.35,0-.4-.33-.45s-.33,0-.35.26,0,.22-.06.33-.07.18-.2.14-.21-.06-.18-.22c.1-.5.19-1,.28-1.49,0-.12.06-.19.19-.17s.22.05.19.21,0,.12,0,.18a.4.4,0,0,0,.54.48c.19-.07.13-.29.16-.45s0-.24.22-.22S26.87,41.52,26.84,41.64Z"/><path class="cls-16" d="M22.74,12.13a.57.57,0,0,0-.46.65c0,.13.13.24,0,.35S22,13.27,22,13q-.2-.79-.44-1.57c-.07-.22.13-.23.22-.33a.21.21,0,0,1,.32,0l1.24.89c.07,0,.26.09.12.23s-.21.28-.4.09A2.53,2.53,0,0,0,22.74,12.13Z"/><path class="cls-16" d="M17.76,18c-.34-.5-.68-1-1-1.49-.13-.18,0-.27.09-.38s.11-.2.29-.14c.49.17,1,.3,1.49.46.09,0,.27,0,.16.2s-.11.32-.32.19-.48,0-.64.22a.27.27,0,0,0,0,.38C18,17.68,18,17.68,17.76,18Z"/><path class="cls-20" d="M50.33,29.22l.59,0c.16,0,.21.07.2.23s-.1.19-.24.18l-1-.07c-.25,0-.45.08-.47.36s.17.4.41.43.64.06,1,.08c.14,0,.23,0,.21.21s-.12.19-.25.17c-.31,0-.62-.05-.92-.1-.52-.09-.75-.37-.71-.82s.29-.71.85-.71h.33Z"/><path class="cls-16" d="M30.28,7.76c.19,0,.26,0,.32.13.21.46.43.91.64,1.37,0,.07.22.22,0,.28s-.33.12-.38-.13-.26-.35-.54-.31-.31.1-.31.32,0,.27-.2.3-.27,0-.22-.19c.13-.53.26-1.05.38-1.58C30,7.72,30.21,7.79,30.28,7.76Z"/><path class="cls-19" d="M27.64,41.94c0,.29-.06.56-.08.83a.35.35,0,0,0,.35.43.35.35,0,0,0,.4-.35q.07-.48.13-1c0-.13,0-.25.21-.22s.19.12.17.26c0,.34-.08.69-.14,1s-.37.6-.86.54a.63.63,0,0,1-.63-.71,6.72,6.72,0,0,1,.09-.85c0-.15-.09-.43.24-.39S27.6,41.82,27.64,41.94Z"/><path class="cls-19" d="M30,41.77a.27.27,0,0,1,.33.24c.12.48.26.95.39,1.43,0,.09.12.24-.07.27s-.29,0-.3-.18-.27-.29-.48-.31-.35,0-.4.25a.2.2,0,0,1-.29.15c-.2-.07-.07-.2,0-.3.18-.44.37-.89.55-1.33C29.7,41.84,29.77,41.73,30,41.77Z"/><path class="cls-19" d="M13.57,29.8c.74,0,1.05.16,1.11.72a.64.64,0,0,1-.5.76c-.38.09-.78.11-1.17.18-.16,0-.17-.07-.19-.19s0-.2.17-.21l1-.1c.26,0,.46-.14.43-.45s-.27-.36-.52-.34-.61.06-.92.09c-.12,0-.22,0-.23-.14s0-.24.18-.24S13.33,29.82,13.57,29.8Z"/><path class="cls-16" d="M36.46,43.42c0,.11,0,.15-.08.16s-.28.06-.32-.1c-.08-.35-.34-.27-.58-.27a.28.28,0,0,0-.32.27.22.22,0,0,1-.31.21c-.17-.05-.05-.19,0-.28.12-.46.26-.93.37-1.39a.33.33,0,0,1,.63-.06C36,42.46,36.26,43,36.46,43.42Z"/><path class="cls-20" d="M49.4,26.44c0,.13,0,.27.07.4s0,.2-.11.22-.18,0-.19-.15c0-.29-.07-.59-.11-.88s0-.19.18-.21l1.47-.17c.14,0,.2,0,.22.16s.07.54.11.81c0,.11,0,.16-.13.17s-.17,0-.18-.13,0-.25,0-.37,0-.3-.2-.25-.33,0-.26.29a1.1,1.1,0,0,1,0,.18c0,.11,0,.23-.13.24s-.16-.13-.16-.23,0-.46-.35-.37C49.42,26.21,49.36,26.27,49.4,26.44Z"/><path class="cls-19" d="M36.82,9.19c0,.26-.19.2-.33.14s-.4-.08-.44.23,0,.23.17.26a1.25,1.25,0,0,1,.25.07c.12.05.38,0,.3.24s-.28.07-.39,0c-.82-.21-.82-.22-.58-1l0-.18C36.1,8,36.1,8,37,8.38c.11,0,.18.07.14.2s-.12.14-.23.1l-.28-.09c-.15,0-.29-.13-.36.13s0,.27.22.32S36.78,9,36.82,9.19Z"/><path class="cls-19" d="M41.64,11.9l-.2-.14c-.15-.11-.26-.25-.43,0s-.05.33.14.44l.31.2a.1.1,0,0,1,0,.18c-.05.06-.09.16-.2.08l-.82-.57c-.1-.07,0-.15,0-.22.28-.41.57-.81.84-1.22.09-.13.16-.15.29-.05s.42.3.64.45.14.12.06.24-.16.08-.24,0l-.27-.2c-.13-.1-.22-.17-.35,0s-.07.28.1.37a1.77,1.77,0,0,1,.22.14c.06,0,.08.09,0,.16S41.74,11.9,41.64,11.9Z"/><path class="cls-19" d="M16.25,20.81a1.75,1.75,0,0,1-.29.78c-.06.1-.12.14-.23.06s-.12-.12,0-.23a2,2,0,0,0,.2-.39c0-.1.07-.22,0-.3s-.21,0-.3.05-.26.23-.4.33a.52.52,0,0,1-.62,0,.48.48,0,0,1-.18-.56,3.48,3.48,0,0,1,.23-.54c0-.1.12-.1.21,0s.12.09.06.2-.38.42-.11.6.36-.17.52-.3a.67.67,0,0,1,.69-.13A.49.49,0,0,1,16.25,20.81Z"/><path class="cls-19" d="M49.71,21c0,.14,0,.17-.11.19s-.15,0-.18-.08a1.07,1.07,0,0,0-.1-.28c-.08-.11,0-.38-.31-.26s-.21.24-.12.41a1.06,1.06,0,0,1,.08.21.11.11,0,0,1-.08.14c-.07,0-.15.06-.19,0a2,2,0,0,1-.1-.28c0-.17-.12-.24-.31-.14s-.33.12-.19.36.11.25.17.37.06.18-.07.23-.18,0-.22-.11c-.1-.26-.21-.53-.32-.79s0-.22.13-.27l1.38-.54c.08,0,.16-.1.21,0Z"/><path class="cls-19" d="M14.32,23.81c.06.15-.23.34,0,.48s.39.07.48-.24-.06-.49.22-.45.09.35.06.51c-.15.72-.16.71-.89.53l-.87-.2c-.17,0-.27-.09-.19-.29a5.77,5.77,0,0,0,.18-.72c0-.12.06-.18.2-.15s.13.13.1.23a2.35,2.35,0,0,1-.09.32c-.08.17-.05.27.15.31s.28,0,.3-.2a1.39,1.39,0,0,1,0-.22c0-.08,0-.18.17-.14S14.41,23.67,14.32,23.81Z"/><path class="cls-19" d="M50.75,24.71c0,.24-.05.46-.29.55a.56.56,0,0,1-.67-.14.73.73,0,0,1-.19-.31c0-.33-.24-.33-.49-.25-.09,0-.2.13-.31,0a.22.22,0,0,1,.14-.38l1.41-.29c.11,0,.22-.05.25.12S50.7,24.49,50.75,24.71Z"/><path class="cls-19" d="M14.36,25.78c-.46-.21-.82-.41-1.19-.55A.23.23,0,0,1,13,24.9c.07-.22.21-.05.29,0,.46.24.9.51,1.36.75.14.07.11.17.1.28a.18.18,0,0,1-.18.19L13,26.38c-.08,0-.24.08-.22-.08s-.06-.34.21-.36C13.42,25.91,13.83,25.85,14.36,25.78Z"/><path class="cls-16" d="M34.44,42.28c-.28-.1-.57-.25-.8.07a.89.89,0,0,0,0,.92c.16.21.34.22.81.05.1.21,0,.33-.18.39a1,1,0,0,1-.69,0,1,1,0,0,1-.41-1.33.83.83,0,0,1,1.06-.5C34.44,41.93,34.46,42,34.44,42.28Z"/><path class="cls-20" d="M39.6,10.86a.66.66,0,0,0,.47.64c.06,0,.24,0,.15.17s-.14.19-.29.12a1.05,1.05,0,0,1-.74-.84,1,1,0,0,1,.47-.94.94.94,0,0,1,1.08,0c.09.06.26.08.16.26s-.19.1-.32,0A.63.63,0,0,0,39.6,10.86Z"/><path class="cls-20" d="M23,10.77a1,1,0,0,1,.62-.87c.09,0,.2-.13.27,0s0,.18-.11.25c-.45.23-.53.54-.28.93s.58.41,1,.14c.07,0,.12-.19.23-.07a.19.19,0,0,1,0,.29,1.16,1.16,0,0,1-1.09.27A1,1,0,0,1,23,10.77Z"/><path class="cls-18" d="M37.34,42.34c.06-.21.14-.4.18-.6a.25.25,0,0,1,.34-.2c.22.06,0,.21,0,.3a2.49,2.49,0,0,0-.26,1.43.15.15,0,0,1-.14.21c-.1,0-.23,0-.23-.12,0-.67-.48-1.09-.75-1.62C36.75,41.65,36.75,41.65,37.34,42.34Z"/><path class="cls-20" d="M43.62,14.81l-.17-.24c-.08-.11,0-.15.09-.2.26-.26.52-.52.81-.76s.18-.25,0-.4-.26-.12-.1-.28.23,0,.32.08l.67.69c.08.08.21.15,0,.29s-.2,0-.26-.08c-.17-.26-.31-.18-.48,0s-.49.49-.73.73Z"/><path class="cls-18" d="M49.93,21.66c.05,0,0,.12.07.2s0,.19-.15.23c-.34.1-.68.22-1,.3s-.3.18-.19.4.07.23.12.35,0,.15-.1.18-.16,0-.2-.09l-.28-.88c0-.09,0-.14.08-.17Z"/><path class="cls-18" d="M37.77,8.64c.19.07.38.08.25.35s-.28.69-.43,1c-.08.18-.07.26.13.32s.28.1.42.15.15.08.1.19-.08.16-.19.11l-.86-.34c-.11,0-.12-.1-.08-.2l.58-1.48A.46.46,0,0,1,37.77,8.64Z"/><path class="cls-21" d="M31.58,8.59c0-.25,0-.49,0-.74s.08-.2.22-.2.19.05.19.2c0,.36,0,.72,0,1.07s.08.35.33.31a3,3,0,0,1,.33,0c.09,0,.17,0,.17.13s0,.17-.14.17h-.92c-.14,0-.15-.1-.14-.2s0-.49,0-.74Z"/><path class="cls-22" d="M16.69,19.86c0,.23-.17.35-.33.28L15,19.47c-.14-.07-.17-.13-.1-.28s.14-.16.28-.08c.43.23.88.44,1.32.66C16.61,19.81,16.69,19.82,16.69,19.86Z"/><path class="cls-21" d="M13,26.81l1.37.1c.15,0,.22,0,.21.21s-.06.21-.23.19c-.48-.05-1-.09-1.44-.12-.17,0-.24-.05-.22-.24S12.83,26.75,13,26.81Z"/><path class="cls-20" d="M24.61,9.44c.09,0,.11.08.14.15.22.44.43.88.66,1.32.08.15,0,.2-.1.28s-.21,0-.27-.11l-.63-1.29A.22.22,0,0,1,24.61,9.44Z"/><path class="cls-23" d="M51.59,30.54c-.13,0-.16-.1-.21-.16s-.2-.2-.12-.35.08,0,.12,0,.28.13.26.32S51.6,30.47,51.59,30.54Z"/><path class="cls-24" d="M14.54,29c-.44-.08-.89,0-1.35,0a.19.19,0,0,1,.17-.12c.27.12.55,0,.82.06C14.31,28.93,14.46,28.85,14.54,29Z"/><path class="cls-25" d="M13.05,28.09a2.38,2.38,0,0,1,.83,0c.2,0,0,.08,0,.12C13.6,28,13.32,28.17,13.05,28.09Z"/><path class="cls-26" d="M32.45,39.94a25.64,25.64,0,0,1-7.38-.9,13.13,13.13,0,0,1-6.18-3.51,9.54,9.54,0,0,1-2.55-6,17.67,17.67,0,0,1,4.42-13,14.46,14.46,0,0,1,8.36-5,13.17,13.17,0,0,1,8.73,1.25A17.47,17.47,0,0,1,45.79,21a16.58,16.58,0,0,1,1.67,7.87,10.75,10.75,0,0,1-2.34,6.75A10.45,10.45,0,0,1,40.9,38.6,20.4,20.4,0,0,1,34,39.94C33.5,40,33,39.94,32.45,39.94Z"/><path class="cls-27" d="M38.68,42.14a.47.47,0,0,1,.48-.53c.3,0,.52.33.51.78a.47.47,0,0,1-.48.53C38.89,42.91,38.68,42.6,38.68,42.14Z"/><path class="cls-27" d="M25.76,9.57c0-.32.18-.51.46-.51a.69.69,0,0,1,.62.75c0,.33-.19.55-.47.53A.72.72,0,0,1,25.76,9.57Z"/><path class="cls-28" d="M46.7,16.33a.43.43,0,0,1,.46.47.78.78,0,0,1-.76.68.45.45,0,0,1-.48-.49A.77.77,0,0,1,46.7,16.33Z"/><path class="cls-29" d="M35,8.73a.62.62,0,0,1-.69.67c-.15,0-.21-.08-.17-.24a5,5,0,0,0,.11-.8c0-.29.17-.3.36-.22A.57.57,0,0,1,35,8.73Z"/><path class="cls-30" d="M17.07,18.5a.58.58,0,0,1-.17.41c-.14.12-.24,0-.35-.1s-.38-.23-.58-.31-.21-.27-.06-.43a.55.55,0,0,1,.67-.15A.75.75,0,0,1,17.07,18.5Z"/><path class="cls-29" d="M19.31,15.29a.52.52,0,0,1-.24.48c-.15.09-.23-.09-.33-.16s-.33-.29-.51-.42-.18-.27,0-.41a.56.56,0,0,1,.65-.08A.72.72,0,0,1,19.31,15.29Z"/><path class="cls-31" d="M45.94,15a.26.26,0,0,1-.26.29c-.2,0-.31-.14-.41-.28s.36-.42.4-.39A.52.52,0,0,1,45.94,15Z"/><path class="cls-30" d="M48.51,19.16a.67.67,0,0,1-.55.58.54.54,0,0,1-.67-.24c-.09-.14-.12-.25.08-.34s.43-.23.65-.34S48.5,18.75,48.51,19.16Z"/><path class="cls-32" d="M50.53,27.74c.23-.06.32,0,.31.21s-.05.36-.27.37-.31-.2-.33-.4S50.48,27.81,50.53,27.74Z"/><path class="cls-33" d="M14.57,22.3c-.06.09,0,.32-.18.28s-.42,0-.43-.23a.34.34,0,0,1,.31-.39C14.48,21.95,14.58,22.09,14.57,22.3Z"/><path class="cls-34" d="M21.8,11.4l.69.52-.41.3Z"/><path class="cls-35" d="M17.49,17l-.44-.6a.74.74,0,0,1,.61.14C17.86,16.74,17.55,16.82,17.49,17Z"/><path class="cls-36" d="M30.26,8l.21.46c.12.26,0,.36-.25.34-.13,0-.14-.06-.12-.16s0-.21.07-.32S30.22,8.18,30.26,8Z"/><path class="cls-37" d="M29.89,42.24c.12.23.28.44.18.65s-.27,0-.44,0Z"/><path class="cls-38" d="M35.51,42.14l.31.73c-.17,0-.42.1-.45,0S35.43,42.46,35.51,42.14Z"/><path class="cls-37" d="M50.45,24.58c0,.21-.08.35-.3.35a.36.36,0,0,1-.35-.4c0-.27.27-.18.42-.22S50.4,24.47,50.45,24.58Z"/><path class="cls-39" d="M31.91,32.31l-1,.89h.95a4.1,4.1,0,0,1-.44,1.23,1.53,1.53,0,0,1-1.35.82,23.16,23.16,0,0,1-3.16,0,.89.89,0,0,1-.79-.51,1.9,1.9,0,0,1,.43-2.3.77.77,0,0,0,.28-.67,10.69,10.69,0,0,1,0-1.23.52.52,0,0,0-.34-.57,7.56,7.56,0,0,1-3.21-3.1,7.2,7.2,0,0,1-.61-2.59,23.61,23.61,0,0,1-.18-2.41c0-.26-.1-.35-.35-.33a2.89,2.89,0,0,1-.59,0A.53.53,0,0,1,21,21c0-.45,0-.89,0-1.34a.26.26,0,0,1,.18-.25,4.71,4.71,0,0,1,.43-.21.41.41,0,0,0,.3-.48c0-.51,0-1,0-1.52,0-.17,0-.24.23-.24.89,0,1.78,0,2.68,0,.2,0,.25.07.26.26,0,.45,0,.89,0,1.34,0,.25.06.41.3.47.51.12.66.45.61.95a7.29,7.29,0,0,0,0,.93.51.51,0,0,1-.56.61h-.19c-.3,0-.38.1-.34.39a6.4,6.4,0,0,0,.69,2.56,1.87,1.87,0,0,0,1.14.89c.2.05.33.05.31-.22,0-.46,0-.92,0-1.37,0-.25-.1-.32-.33-.3s-.44,0-.75,0l.76-1.19c.07-.12.2-.08.3-.09a5.64,5.64,0,0,0,1.77-.37A2.13,2.13,0,0,0,30.25,20a6.06,6.06,0,0,0,0-1.44.37.37,0,0,1,.12-.36,3,3,0,0,1,3.83.08,1.58,1.58,0,0,1,.44.68.58.58,0,0,0,.52.44,6.2,6.2,0,0,1,1.71.59,1.7,1.7,0,0,1,.72.68c.09.17.08.26-.16.26-.48,0-1,0-1.45.07a1.24,1.24,0,0,0-.72.27,3.75,3.75,0,0,0,2.18.16,3.85,3.85,0,0,1-3,1.24c-.16,0-.41-.09-.47.09a.72.72,0,0,0,.14.7,2.28,2.28,0,0,0,2.53.66,7.28,7.28,0,0,1,2.73-.79H40a6.83,6.83,0,0,0,3.75-.67,1,1,0,0,1-.43.84,5,5,0,0,1-2.52.89l-.33,0c-.52.06-.68.27-.6.79a.36.36,0,0,0,.4.35.31.31,0,0,0,.32-.4c-.1-.39.11-.39.38-.38a6.61,6.61,0,0,0,2.43-.47,3.28,3.28,0,0,1-2.32,1.5c-.34,0-.69.05-1,.1s-.27.39-.3.62.14.35.38.34.34-.1.3-.29.1-.24.26-.25a4.32,4.32,0,0,0,2.14-.58c.13.09,0,.17,0,.23a2,2,0,0,1-1.63,1c-.38,0-.76.09-1.15.1s-.28.23-.31.41-.06.43.19.55a.34.34,0,0,0,.51-.31c0-.11-.08-.27.13-.27A4.75,4.75,0,0,0,42.83,27a2.42,2.42,0,0,1-2.4,1.56c-.63,0-1.26,0-1.9,0-.27,0-.38-.05-.36-.35s0-.84,0-1.33a6.85,6.85,0,0,1-1.54,1.4,3.49,3.49,0,0,1-2,.11l.45.52a4.49,4.49,0,0,1,1.17,2.63c0,.27.13.33.37.3s.52,0,.84-.07L36.7,33h.95a5.21,5.21,0,0,1-1,1.79.86.86,0,0,1-.52.25A14.16,14.16,0,0,1,33,35a.76.76,0,0,1-.78-1c0-.52.18-1,.26-1.54a1.35,1.35,0,0,0-1.23-1.59c-.15,0-.21,0-.2.17s0,.15,0,.22c0,.31-.1.69,0,.91S31.58,32.18,31.91,32.31Z"/><path class="cls-39" d="M41.17,36.65a2.82,2.82,0,0,0-.62-1.82,5,5,0,0,0,.24,2.47,1.48,1.48,0,0,1-1-1.53c0-.1.09-.24-.07-.29s-.2.07-.25.17a.34.34,0,0,1-.4.19c-.26,0-.38.06-.32.33-.12,0-.16-.08-.22-.13-.38-.36-.5-.73-.34-1a.92.92,0,0,1,1.08-.26c.19.06.37.14.56.21.1-.33,0-.48-.34-.49-.82,0-1.15-.43-1.08-1.25a18.7,18.7,0,0,0,.12-2.48.91.91,0,0,0-.45-.83.79.79,0,0,1-.44-.58,3.64,3.64,0,0,0,1.14.22c.22,0,.31,0,.27-.26-.07-.36.11-.42.43-.42.73,0,1.46,0,2.19,0,.24,0,.36,0,.35.32s-.11.6.33.65c0,0,0,.13.05.2a13.08,13.08,0,0,1-.84,6A1.61,1.61,0,0,1,41.17,36.65Z"/><path class="cls-39" d="M19.31,32.58a4.24,4.24,0,0,0,1.23-.75,4.25,4.25,0,0,1,2.82-1.08,1.25,1.25,0,0,0,1.25-.65c.37-.53.4-.51.92-.13s.53.38.14.91L25.6,31a1.32,1.32,0,0,0-.36,1.42,3.08,3.08,0,0,1-.7,2.84l-.4.49a6.36,6.36,0,0,0-1.21,1.7,4.28,4.28,0,0,1-.42-1,.76.76,0,0,1,.17-.76,6,6,0,0,0,1.08-1.68A3.24,3.24,0,0,0,24,33.3a.84.84,0,0,0-1-1.07,4,4,0,0,0-2,.82,1.1,1.1,0,0,1-1.47,0l-.56-.37C19,32.48,19.21,32.68,19.31,32.58Z"/><path class="cls-39" d="M41.19,20.17h1.52a1,1,0,0,1,.84,1.73,1.6,1.6,0,0,1-.49.45c-.14.08-.28.16-.25.36s-.1.16-.22.16l-2.78,0c-.16,0-.23-.06-.2-.22s-.09-.31-.25-.4a1.59,1.59,0,0,1-.55-.59.93.93,0,0,1,.84-1.45Z"/><path class="cls-39" d="M30,19.67a1.78,1.78,0,0,1-1.63,1.85,1.59,1.59,0,0,1-1.47-1.07,1.47,1.47,0,0,1,.4-1.66,2.87,2.87,0,0,1,.92-.62,1.3,1.3,0,0,1,1.76,1.2C29.95,19.47,29.95,19.59,30,19.67Z"/><path class="cls-39" d="M35.65,17.57a.46.46,0,0,1,0,.07c0,.47,0,.47.39.27A1.27,1.27,0,0,1,37.7,18a1,1,0,0,1-.23,1.66.24.24,0,0,1-.3,0A4.86,4.86,0,0,0,35.6,19a.71.71,0,0,1-.49-1A.87.87,0,0,1,35.65,17.57Z"/><path class="cls-39" d="M41.46,20c-.32,0-.64,0-1-.08a.7.7,0,0,1-.67-.74c0-.35,0-.69,0-1s.08-.26.28-.27c.62,0,.62,0,.57.59,0,0,0,0,0,.07-.07.94.33,1.08,1.25.89a.3.3,0,0,0,.24-.32c0-.31,0-.62,0-.93s.05-.3.29-.29c.73,0,.61-.09.61.6a6.9,6.9,0,0,1,0,.7.75.75,0,0,1-.78.77c-.26,0-.52,0-.78,0Z"/><path class="cls-39" d="M20.09,35.55c.51-.72.9-1.4,1.41-2a1.65,1.65,0,0,1,.45-.38.8.8,0,0,1,1.08.11A.91.91,0,0,1,23,34.42a1.09,1.09,0,0,1-.38.29c-.17.07-.34.15-.51.21Z"/><path class="cls-40" d="M41.84,18.29c-.08.23.07.55-.31.64-.19,0-.32,0-.36-.21a3.15,3.15,0,0,1-.06-.4c0-.45.14-.59.58-.46C41.94,17.93,41.76,18.15,41.84,18.29Z"/><path class="cls-41" d="M19.31,32.58c-.1.12-.27,0-.37.13s-.22-.07,0-.13A1.4,1.4,0,0,1,19.31,32.58Z"/><path class="cls-42" d="M23.9,22.83a13.83,13.83,0,0,0,1,3.07,4.3,4.3,0,0,0,1.19,1.41,1.33,1.33,0,0,0,.6.28c.12,0,.33-.07.35.1a2.29,2.29,0,0,1,0,.73c0,.1-.17,0-.26,0a3,3,0,0,1-2-1.66,8.44,8.44,0,0,1-.91-3.57C23.82,23.08,23.71,22.93,23.9,22.83Z"/><path class="cls-43" d="M23.22,19.15c-.16,0-.31,0-.28-.22s-.08-.17-.19-.16-.18,0-.18-.17,0-.19.16-.19.2,0,.2-.1-.13-.09-.2-.09-.17-.09-.18-.21.08-.17.19-.16.3,0,.3-.26.34-.17.43,0,.26.24.4,0,.38-.14.4-.05c.07.27.23.26.43.26s.08.1.09.17-.05.15-.16.15-.22,0-.22.17.1.14.2.14.17.06.17.18,0,.21-.18.21-.19,0-.18.12-.06.26-.26.26-.35,0-.33-.26-.1-.12-.19-.12-.18,0-.17.15S23.39,19.17,23.22,19.15Z"/><path class="cls-44" d="M23.58,20.9c-.38,0-.77,0-1.15,0s-.43-.1-.43-.41c0-.84,0-.85.82-.85h1.89c.28,0,.4.09.39.39,0,.93.1.86-.86.86h-.67Z"/><path class="cls-42" d="M30.09,22.25l1.15-2a.29.29,0,0,1,.42-.11c.15.09,0,.21-.07.31-.24.46-.49.91-.74,1.38.32.09.53,0,.66-.29s.37-.75.54-1.14a.37.37,0,0,1,.55-.23l-.81,2a.22.22,0,0,1-.24.13Z"/><path class="cls-45" d="M33.06,34.5c-.17-.64.45-.63.66-.93-.17-.32-.82-.28-.64-.91l1.27.91Z"/><path class="cls-45" d="M27.83,33.67c-.18-.33-.76-.3-.67-.91l1.24.83c.16.11,0,.16-.06.2-.3.18-.59.36-.9.52-.08,0-.18.21-.27.06a.25.25,0,0,1,.11-.35C27.47,33.91,27.65,33.78,27.83,33.67Z"/><path class="cls-44" d="M31.92,19.86a1.44,1.44,0,0,1-.55-.09c-.08,0-.17-.07-.18-.17a.19.19,0,0,1,.14-.19,1.82,1.82,0,0,1,1.36,0c.21.08.19.24,0,.35A1.41,1.41,0,0,1,31.92,19.86Z"/><path class="cls-46" d="M23.9,22.83c-.08.12,0,.26-.07.39a2.83,2.83,0,0,1-.08-.76c0-.07,0-.09.07-.06Z"/><path class="cls-47" d="M23.83,22.4l-.07.06a.47.47,0,0,1,0-.41C23.78,22.2,23.85,22.28,23.83,22.4Z"/><path class="cls-48" d="M39.8,31.59a2.73,2.73,0,0,1,.39,1.78c0,.2-.13.41-.35.42s-.28-.21-.32-.4A2.94,2.94,0,0,1,39.8,31.59Z"/><path class="cls-44" d="M41.2,21.86H40c-.3,0-.42-.13-.42-.43,0-.82,0-.83.81-.83s1.39,0,2.08,0c.31,0,.46.08.44.42,0,.83.13.84-.83.83H41.2Z"/><path class="cls-43" d="M28.84,19.77a.53.53,0,0,1-.51.56.51.51,0,0,1-.48-.51.67.67,0,0,1,.58-.57A.45.45,0,0,1,28.84,19.77Z"/><path class="cls-49" d="M24,18.2c0,.23-.07.27-.26.27s-.26-.06-.27-.25.09-.24.27-.24S24,18,24,18.2Z"/><path class="cls-50" d="M23.57,20.61h-.92c-.19,0-.27-.09-.25-.27s0-.39.22-.39c.64,0,1.28,0,1.92,0,.22,0,.21.16.2.31s0,.34-.21.35h-1Z"/><path class="cls-51" d="M41.22,21.53h-.89c-.19,0-.37,0-.37-.28s.11-.34.36-.34h1.89c.21,0,.31.06.31.3s-.07.32-.29.31h-1Z"/><path class="cls-26" d="M60.12,18V8.58a.19.19,0,0,1,.2-.2h3.47a.19.19,0,0,1,.2.2v9.78c0,.47.22.67.59.67s.59-.2.59-.67V8.58a.19.19,0,0,1,.2-.2h3.47a.19.19,0,0,1,.2.2V18c0,3-1.76,4.51-4.47,4.51S60.12,20.94,60.12,18Z"/><path class="cls-26" d="M74.86,22.26a.19.19,0,0,1-.2-.2V15.77c0-.43-.14-.61-.43-.61s-.43.18-.43.61v6.29a.19.19,0,0,1-.2.2H70.33a.19.19,0,0,1-.2-.2v-9.6a.19.19,0,0,1,.2-.2h3.23a.19.19,0,0,1,.2.2v.74h0a2.24,2.24,0,0,1,2.12-1.14c1.82,0,2.43,1,2.43,3v7a.19.19,0,0,1-.2.2Z"/><path class="cls-26" d="M79.58,11.32a.19.19,0,0,1-.2-.2V8.58a.19.19,0,0,1,.2-.2h3.27a.19.19,0,0,1,.2.2v2.53a.19.19,0,0,1-.2.2Zm0,10.94a.19.19,0,0,1-.2-.2v-9.6a.19.19,0,0,1,.2-.2h3.27a.19.19,0,0,1,.2.2v9.6a.19.19,0,0,1-.2.2Z"/><path class="cls-26" d="M86.25,22.26c-.14,0-.2-.06-.25-.2l-2.33-9.6a.14.14,0,0,1,.14-.2H87a.21.21,0,0,1,.22.2L88,17.77h0l.76-5.31a.21.21,0,0,1,.22-.2H92a.14.14,0,0,1,.14.2l-2.31,9.6c0,.14-.1.2-.24.2Z"/><path class="cls-26" d="M92.58,20.08a8.43,8.43,0,0,1-.31-2.82,8.43,8.43,0,0,1,.31-2.82,4.05,4.05,0,0,1,7.39,0,10.92,10.92,0,0,1,.31,3.68.19.19,0,0,1-.2.2H96a.11.11,0,0,0-.12.12,2.43,2.43,0,0,0,.06.82.42.42,0,0,0,.43.29c.27,0,.45-.16.57-.49a.21.21,0,0,1,.25-.16l2.8.57c.12,0,.16.12.14.24-.37,1.86-1.88,2.76-3.88,2.76A3.48,3.48,0,0,1,92.58,20.08Zm4.31-4A3.91,3.91,0,0,0,96.83,15,.45.45,0,0,0,96,15a3.92,3.92,0,0,0-.06,1.08.11.11,0,0,0,.12.12h.74A.11.11,0,0,0,96.89,16.1Z"/><path class="cls-26" d="M101.34,22.26a.19.19,0,0,1-.2-.2v-9.6a.19.19,0,0,1,.2-.2h3.27a.19.19,0,0,1,.2.2v.84h0c.41-.92,1.27-1.25,2.53-1.25h.14c.12,0,.18.06.16.18l-.41,3.21c0,.12-.08.14-.2.12a2.47,2.47,0,0,0-.47,0c-1.16,0-1.78.59-1.78,2.37v4.17a.19.19,0,0,1-.2.2Z"/><path class="cls-26" d="M107.88,19.67c0-.12,0-.2.16-.22l2.82-.43a.2.2,0,0,1,.25.16c0,.47.24.69.59.69a.44.44,0,0,0,.49-.47c0-.33-.16-.43-.61-.55l-.8-.22c-2-.55-2.74-1.65-2.74-3.27,0-2.08,1.27-3.31,3.74-3.31,2.23,0,3.49,1,3.61,2.59,0,.14,0,.2-.1.22l-2.65.43c-.08,0-.16,0-.16-.1,0-.35-.18-.55-.55-.55s-.47.18-.47.41.16.33.63.47l.8.22c2,.57,2.74,1.57,2.74,3.27,0,2.29-1.41,3.45-3.9,3.45S108,21.43,107.88,19.67Z"/><path class="cls-26" d="M116.56,11.32a.19.19,0,0,1-.2-.2V8.58a.19.19,0,0,1,.2-.2h3.27a.19.19,0,0,1,.2.2v2.53a.19.19,0,0,1-.2.2Zm0,10.94a.19.19,0,0,1-.2-.2v-9.6a.19.19,0,0,1,.2-.2h3.27a.19.19,0,0,1,.2.2v9.6a.19.19,0,0,1-.2.2Z"/><path class="cls-26" d="M125.83,22.26a.19.19,0,0,1-.2-.2v-.78h0a2.2,2.2,0,0,1-2.08,1.18,2,2,0,0,1-2.23-1.53,11.89,11.89,0,0,1-.33-3.68,11.89,11.89,0,0,1,.33-3.68,2,2,0,0,1,2.23-1.53,2.14,2.14,0,0,1,2,1.18h0V8.58a.19.19,0,0,1,.2-.2h3.27a.19.19,0,0,1,.2.2V22.06a.19.19,0,0,1-.2.2Zm-.31-3.1a9.28,9.28,0,0,0,.06-1.9,9.28,9.28,0,0,0-.06-1.9.43.43,0,0,0-.82,0,9.32,9.32,0,0,0-.06,1.9,9.32,9.32,0,0,0,.06,1.9.43.43,0,0,0,.82,0Z"/><path class="cls-26" d="M134.59,22.26a.19.19,0,0,1-.2-.2v-.49h0a2.06,2.06,0,0,1-1.9.9c-1.31,0-2.39-.82-2.39-3,0-2.57,1.78-3.21,3.37-3.21h.82a.11.11,0,0,0,.12-.12v-.37c0-.49-.27-.74-1.12-.74a3,3,0,0,0-1.65.47c-.14.1-.27.08-.31,0l-.92-2.31a.24.24,0,0,1,.1-.33,6.84,6.84,0,0,1,3.35-.74c3.08,0,4,1.29,4,3.68v6.33a.19.19,0,0,1-.2.2Zm-.2-3.16v-.65a.11.11,0,0,0-.12-.12H134c-.49,0-.71.31-.71.82s.18.74.55.74S134.38,19.65,134.38,19.1Z"/><path class="cls-26" d="M143.61,22.26a.19.19,0,0,1-.2-.2v-.78h0a2.2,2.2,0,0,1-2.08,1.18,2,2,0,0,1-2.23-1.53,11.89,11.89,0,0,1-.33-3.68,11.89,11.89,0,0,1,.33-3.68,2,2,0,0,1,2.23-1.53,2.14,2.14,0,0,1,2,1.18h0V8.58a.19.19,0,0,1,.2-.2h3.27a.19.19,0,0,1,.2.2V22.06a.19.19,0,0,1-.2.2Zm-.31-3.1a9.28,9.28,0,0,0,.06-1.9,9.28,9.28,0,0,0-.06-1.9.43.43,0,0,0-.82,0,9.32,9.32,0,0,0-.06,1.9,9.32,9.32,0,0,0,.06,1.9.43.43,0,0,0,.82,0Z"/><path class="cls-26" d="M152.13,8.58a.19.19,0,0,1,.2-.2h3.39a.3.3,0,0,1,.31.2l1.88,6.64h.1V8.58a.19.19,0,0,1,.2-.2h2.94a.19.19,0,0,1,.2.2V22.06a.19.19,0,0,1-.2.2h-3.39a.3.3,0,0,1-.31-.2l-1.88-6.64h-.1v6.64a.19.19,0,0,1-.2.2h-2.94a.19.19,0,0,1-.2-.2Z"/><path class="cls-26" d="M166.72,22.26a.19.19,0,0,1-.2-.2v-.49h0a2.06,2.06,0,0,1-1.9.9c-1.31,0-2.39-.82-2.39-3,0-2.57,1.78-3.21,3.37-3.21h.82a.11.11,0,0,0,.12-.12v-.37c0-.49-.27-.74-1.12-.74a3,3,0,0,0-1.65.47c-.14.1-.27.08-.31,0l-.92-2.31a.24.24,0,0,1,.1-.33,6.84,6.84,0,0,1,3.35-.74c3.08,0,4,1.29,4,3.68v6.33a.19.19,0,0,1-.2.2Zm-.2-3.16v-.65a.11.11,0,0,0-.12-.12h-.29c-.49,0-.71.31-.71.82s.18.74.55.74S166.52,19.65,166.52,19.1Z"/><path class="cls-26" d="M171.09,20.08a9.18,9.18,0,0,1-.29-2.82,9.18,9.18,0,0,1,.29-2.82,3.46,3.46,0,0,1,3.68-2.39c2.18,0,3.7,1.12,3.86,3.19a.22.22,0,0,1-.16.25l-2.86.49c-.12,0-.25,0-.25-.18,0-.53-.16-.71-.43-.71a.36.36,0,0,0-.39.27,9,9,0,0,0-.06,1.92,9,9,0,0,0,.06,1.92.36.36,0,0,0,.39.27c.27,0,.43-.18.43-.71,0-.16.12-.2.25-.18l2.86.49a.22.22,0,0,1,.16.24c-.16,2.06-1.67,3.19-3.86,3.19A3.46,3.46,0,0,1,171.09,20.08Z"/><path class="cls-26" d="M179.61,11.32a.19.19,0,0,1-.2-.2V8.58a.19.19,0,0,1,.2-.2h3.27a.19.19,0,0,1,.2.2v2.53a.19.19,0,0,1-.2.2Zm0,10.94a.19.19,0,0,1-.2-.2v-9.6a.19.19,0,0,1,.2-.2h3.27a.19.19,0,0,1,.2.2v9.6a.19.19,0,0,1-.2.2Z"/><path class="cls-26" d="M184.24,20a8,8,0,0,1-.31-2.72,8,8,0,0,1,.31-2.72c.55-1.69,1.86-2.49,3.84-2.49s3.29.8,3.84,2.49a8,8,0,0,1,.31,2.72,8,8,0,0,1-.31,2.72c-.55,1.69-1.86,2.49-3.84,2.49S184.8,21.67,184.24,20Zm4.25-.82a8.87,8.87,0,0,0,.06-1.9,8.87,8.87,0,0,0-.06-1.9.43.43,0,0,0-.82,0,8.9,8.9,0,0,0-.06,1.9,8.89,8.89,0,0,0,.06,1.9.43.43,0,0,0,.82,0Z"/><path class="cls-26" d="M197.82,22.26a.19.19,0,0,1-.2-.2V15.77c0-.43-.14-.61-.43-.61s-.43.18-.43.61v6.29a.19.19,0,0,1-.2.2h-3.27a.19.19,0,0,1-.2-.2v-9.6a.19.19,0,0,1,.2-.2h3.23a.19.19,0,0,1,.2.2v.74h0a2.24,2.24,0,0,1,2.12-1.14c1.82,0,2.43,1,2.43,3v7a.19.19,0,0,1-.2.2Z"/><path class="cls-26" d="M206.6,22.26a.19.19,0,0,1-.2-.2v-.49h0a2.06,2.06,0,0,1-1.9.9c-1.31,0-2.39-.82-2.39-3,0-2.57,1.78-3.21,3.37-3.21h.82a.11.11,0,0,0,.12-.12v-.37c0-.49-.27-.74-1.12-.74a3,3,0,0,0-1.65.47c-.14.1-.27.08-.31,0l-.92-2.31a.24.24,0,0,1,.1-.33,6.84,6.84,0,0,1,3.35-.74c3.08,0,4,1.29,4,3.68v6.33a.19.19,0,0,1-.2.2Zm-.2-3.16v-.65a.11.11,0,0,0-.12-.12H206c-.49,0-.71.31-.71.82s.18.74.55.74S206.4,19.65,206.4,19.1Z"/><path class="cls-26" d="M214.81,22.39c-2.65,0-3.94-.86-3.94-4.08V8.58a.19.19,0,0,1,.2-.2h3.31a.19.19,0,0,1,.2.2v9.68c0,.71.29,1,.78,1h.12a.21.21,0,0,1,.2.22v2.67a.19.19,0,0,1-.2.2Z"/><path class="cls-26" d="M65,43.39a.19.19,0,0,1-.2-.2v-.78h0a2.2,2.2,0,0,1-2.08,1.18,2,2,0,0,1-2.23-1.53,11.89,11.89,0,0,1-.33-3.68,11.89,11.89,0,0,1,.33-3.68,2,2,0,0,1,2.23-1.53,2.14,2.14,0,0,1,2,1.18h0V29.71a.19.19,0,0,1,.2-.2H68.2a.19.19,0,0,1,.2.2V43.18a.19.19,0,0,1-.2.2Zm-.31-3.1a9.28,9.28,0,0,0,.06-1.9,9.28,9.28,0,0,0-.06-1.9.43.43,0,0,0-.82,0,9.27,9.27,0,0,0-.06,1.9,9.27,9.27,0,0,0,.06,1.9.43.43,0,0,0,.82,0Z"/><path class="cls-26" d="M69.57,41.2a8.43,8.43,0,0,1-.31-2.82,8.43,8.43,0,0,1,.31-2.82,3.48,3.48,0,0,1,3.7-2.39A3.48,3.48,0,0,1,77,35.57a10.92,10.92,0,0,1,.31,3.68.19.19,0,0,1-.2.2H73a.11.11,0,0,0-.12.12,2.43,2.43,0,0,0,.06.82.42.42,0,0,0,.43.29c.27,0,.45-.16.57-.49a.21.21,0,0,1,.25-.16l2.8.57c.12,0,.16.12.14.24-.37,1.86-1.88,2.76-3.88,2.76A3.48,3.48,0,0,1,69.57,41.2Zm4.31-4a3.91,3.91,0,0,0-.06-1.08.45.45,0,0,0-.86,0,3.92,3.92,0,0,0-.06,1.08.11.11,0,0,0,.12.12h.74A.11.11,0,0,0,73.88,37.22Z"/><path class="cls-26" d="M82,43.51c-2.65,0-3.94-.86-3.94-4.08V29.71a.19.19,0,0,1,.2-.2h3.31a.19.19,0,0,1,.2.2v9.68c0,.71.29,1,.78,1h.12a.21.21,0,0,1,.2.22v2.67a.19.19,0,0,1-.2.2Z"/><path class="cls-26" d="M87.64,36.45c0-3,.1-3.74.33-4.41.61-1.88,2-2.74,4.17-2.74,2.86,0,4.27,1.63,4.39,3.94,0,.16,0,.22-.16.24L93,34a.18.18,0,0,1-.22-.18c0-.82-.2-1.1-.59-1.1a.44.44,0,0,0-.47.33c-.08.27-.1.43-.1,3.39s0,3.12.1,3.39a.44.44,0,0,0,.47.33c.39,0,.57-.29.59-1.1a.18.18,0,0,1,.22-.18l3.37.53c.12,0,.16.08.16.24C96.4,42,95,43.59,92.14,43.59c-2.18,0-3.55-.86-4.17-2.74C87.75,40.18,87.64,39.41,87.64,36.45Z"/><path class="cls-26" d="M97.57,41.2a8.43,8.43,0,0,1-.31-2.82,8.43,8.43,0,0,1,.31-2.82,4.05,4.05,0,0,1,7.39,0,10.92,10.92,0,0,1,.31,3.68.19.19,0,0,1-.2.2h-4a.11.11,0,0,0-.12.12,2.43,2.43,0,0,0,.06.82.42.42,0,0,0,.43.29c.27,0,.45-.16.57-.49a.21.21,0,0,1,.25-.16l2.8.57c.12,0,.16.12.14.24-.37,1.86-1.88,2.76-3.88,2.76A3.48,3.48,0,0,1,97.57,41.2Zm4.31-4a3.91,3.91,0,0,0-.06-1.08.45.45,0,0,0-.86,0,3.92,3.92,0,0,0-.06,1.08.11.11,0,0,0,.12.12h.74A.11.11,0,0,0,101.87,37.22Z"/><path class="cls-26" d="M110.86,43.39a.19.19,0,0,1-.2-.2V36.89c0-.43-.14-.61-.43-.61s-.43.18-.43.61v6.29a.19.19,0,0,1-.2.2h-3.27a.19.19,0,0,1-.2-.2v-9.6a.19.19,0,0,1,.2-.2h3.23a.19.19,0,0,1,.2.2v.74h0a2.24,2.24,0,0,1,2.12-1.14c1.82,0,2.43,1,2.43,3v7a.19.19,0,0,1-.2.2Z"/><path class="cls-26" d="M119.92,43.51c-2.72,0-4-.61-4-3.82V36.16a.11.11,0,0,0-.12-.12h-.67a.19.19,0,0,1-.2-.2V33.59a.19.19,0,0,1,.2-.2h.67a.11.11,0,0,0,.12-.12V30.73a.19.19,0,0,1,.2-.2h3.27a.19.19,0,0,1,.2.2v2.53a.11.11,0,0,0,.12.12h1a.19.19,0,0,1,.2.2v2.25a.19.19,0,0,1-.2.2h-1a.11.11,0,0,0-.12.12v3.29c0,.76.29,1,.84,1h.33a.19.19,0,0,1,.2.2v2.7a.19.19,0,0,1-.2.2Z"/><path class="cls-26" d="M122.07,43.39a.19.19,0,0,1-.2-.2v-9.6a.19.19,0,0,1,.2-.2h3.27a.19.19,0,0,1,.2.2v.84h0c.41-.92,1.27-1.25,2.53-1.25h.14c.12,0,.18.06.16.18L128,36.57c0,.12-.08.14-.2.12a2.47,2.47,0,0,0-.47,0c-1.16,0-1.78.59-1.78,2.37v4.17a.19.19,0,0,1-.2.2Z"/><path class="cls-26" d="M129,41.1a8,8,0,0,1-.31-2.72,8,8,0,0,1,.31-2.72c.55-1.69,1.86-2.49,3.84-2.49s3.29.8,3.84,2.49a8,8,0,0,1,.31,2.72,8,8,0,0,1-.31,2.72c-.55,1.69-1.86,2.49-3.84,2.49S129.54,42.8,129,41.1Zm4.25-.82a8.87,8.87,0,0,0,.06-1.9,8.87,8.87,0,0,0-.06-1.9.43.43,0,0,0-.82,0,8.9,8.9,0,0,0-.06,1.9,8.89,8.89,0,0,0,.06,1.9.43.43,0,0,0,.82,0Z"/><path class="cls-26" d="M146.55,43.39a.19.19,0,0,1-.2-.2v-.78h0a2.2,2.2,0,0,1-2.08,1.18A2,2,0,0,1,142,42.06a11.89,11.89,0,0,1-.33-3.68,11.89,11.89,0,0,1,.33-3.68,2,2,0,0,1,2.23-1.53,2.14,2.14,0,0,1,2,1.18h0V29.71a.19.19,0,0,1,.2-.2h3.27a.19.19,0,0,1,.2.2V43.18a.19.19,0,0,1-.2.2Zm-.31-3.1a9.28,9.28,0,0,0,.06-1.9,9.28,9.28,0,0,0-.06-1.9.43.43,0,0,0-.82,0,9.32,9.32,0,0,0-.06,1.9,9.32,9.32,0,0,0,.06,1.9.43.43,0,0,0,.82,0Z"/><path class="cls-26" d="M151.14,41.2a8.43,8.43,0,0,1-.31-2.82,8.43,8.43,0,0,1,.31-2.82,4.05,4.05,0,0,1,7.39,0,10.92,10.92,0,0,1,.31,3.68.19.19,0,0,1-.2.2h-4a.11.11,0,0,0-.12.12,2.43,2.43,0,0,0,.06.82.42.42,0,0,0,.43.29c.27,0,.45-.16.57-.49a.21.21,0,0,1,.25-.16l2.8.57c.12,0,.16.12.14.24-.37,1.86-1.88,2.76-3.88,2.76A3.48,3.48,0,0,1,151.14,41.2Zm4.31-4a3.91,3.91,0,0,0-.06-1.08.45.45,0,0,0-.86,0,3.92,3.92,0,0,0-.06,1.08.11.11,0,0,0,.12.12h.74A.11.11,0,0,0,155.45,37.22Z"/><path class="cls-26" d="M163.62,43.51c-2.65,0-3.94-.86-3.94-4.08V29.71a.19.19,0,0,1,.2-.2h3.31a.19.19,0,0,1,.2.2v9.68c0,.71.29,1,.78,1h.12a.21.21,0,0,1,.2.22v2.67a.19.19,0,0,1-.2.2Z"/><path class="cls-26" d="M169.5,43.39a.19.19,0,0,1-.2-.2V29.71a.19.19,0,0,1,.2-.2h4.41c2.67,0,4.43,1.49,4.43,4.59s-2,4.59-4.43,4.59h-.61a.11.11,0,0,0-.12.12v4.37a.19.19,0,0,1-.2.2Zm5-9.29c0-1.14-.27-1.41-.86-1.41h-.31a.11.11,0,0,0-.12.12v2.57a.11.11,0,0,0,.12.12h.31C174.2,35.51,174.46,35.24,174.46,34.1Z"/><path class="cls-26" d="M179,41.2a8.43,8.43,0,0,1-.31-2.82,8.43,8.43,0,0,1,.31-2.82,4.05,4.05,0,0,1,7.39,0,10.92,10.92,0,0,1,.31,3.68.19.19,0,0,1-.2.2h-4a.11.11,0,0,0-.12.12,2.43,2.43,0,0,0,.06.82.42.42,0,0,0,.43.29c.27,0,.45-.16.57-.49a.21.21,0,0,1,.25-.16l2.8.57c.12,0,.16.12.14.24-.37,1.86-1.88,2.76-3.88,2.76A3.48,3.48,0,0,1,179,41.2Zm4.31-4a3.91,3.91,0,0,0-.06-1.08.45.45,0,0,0-.86,0,3.92,3.92,0,0,0-.06,1.08.11.11,0,0,0,.12.12h.74A.11.11,0,0,0,183.32,37.22Z"/><path class="cls-26" d="M187.77,43.39a.19.19,0,0,1-.2-.2v-9.6a.19.19,0,0,1,.2-.2H191a.19.19,0,0,1,.2.2v.84h0c.41-.92,1.27-1.25,2.53-1.25h.14c.12,0,.18.06.16.18l-.41,3.21c0,.12-.08.14-.2.12a2.47,2.47,0,0,0-.47,0c-1.16,0-1.78.59-1.78,2.37v4.17a.19.19,0,0,1-.2.2Z"/><path class="cls-26" d="M199.6,43.39a.19.19,0,0,1-.2-.2v-.74h0a2.24,2.24,0,0,1-2.12,1.14c-1.78,0-2.43-1-2.43-3v-7a.19.19,0,0,1,.2-.2h3.27a.19.19,0,0,1,.2.2v6.29c0,.43.14.61.43.61s.43-.18.43-.61V33.59a.19.19,0,0,1,.2-.2h3.27a.19.19,0,0,1,.2.2v9.6a.19.19,0,0,1-.2.2Zm-2.18-11c-.12,0-.18-.08-.12-.2l1.59-2.94a.33.33,0,0,1,.33-.2h2.94c.12,0,.18.1.1.2l-2,2.94a.39.39,0,0,1-.37.2Z"/></svg>