<svg id="Layer_1" data-name="Layer 1" xmlns="http://www.w3.org/2000/svg" viewBox="0 0 118.69 40.41"><defs><style>.cls-1{fill:#f9d614;}.cls-2{fill:#e1c112;}.cls-3{fill:#dabc12;}.cls-4{fill:#e4c512;}.cls-5{fill:#dabb11;}.cls-6{fill:#e3c312;}.cls-7{fill:#caae10;}.cls-8{fill:#c2a810;}.cls-9{fill:#eac913;}.cls-10{fill:#e5c512;}.cls-11{fill:#d9ba11;}.cls-12{fill:#edcc13;}.cls-13{fill:#d7b911;}.cls-14{fill:#bea30f;}.cls-15{fill:#0b0302;}.cls-16{fill:#f7d414;}.cls-17{fill:#f7d514;}.cls-18{fill:#f5d314;}.cls-19{fill:#f6d414;}.cls-20{fill:#f6d314;}.cls-21{fill:#f4d214;}.cls-22{fill:#f4d114;}.cls-23{fill:#d3b411;}.cls-24{fill:#504007;}.cls-25{fill:#8d770c;}.cls-26{fill:#016b01;}.cls-27{fill:#0c0402;}.cls-28{fill:#0d0402;}.cls-29{fill:#0d0502;}.cls-30{fill:#0e0602;}.cls-31{fill:#0f0702;}.cls-32{fill:#110902;}.cls-33{fill:#120903;}.cls-34{fill:#180f03;}.cls-35{fill:#170d03;}.cls-36{fill:#191003;}.cls-37{fill:#150c03;}.cls-38{fill:#140b03;}.cls-39{fill:#fcd20b;}.cls-40{fill:#f5cf0b;}.cls-41{fill:#94a807;}.cls-42{fill:#026b01;}.cls-43{fill:#036b01;}.cls-44{fill:#046c01;}.cls-45{fill:#066d01;}.cls-46{fill:#137202;}.cls-47{fill:#9baa07;}.cls-48{fill:#036c01;}.cls-49{fill:#f4cf0b;}.cls-50{fill:#fad10b;}.cls-51{fill:#f9d10b;}</style></defs><title>ISOLOGO2</title><path class="cls-1" d="M0,22.14A7.3,7.3,0,0,0,.2,20.7a24.63,24.63,0,0,1,1.72-6.32,24,24,0,0,1,9-11.05,19,19,0,0,1,8.28-3c.17,0,.37.07.52-.08h.15c.14.08.29,0,.44,0s.26,0,.38,0h1a.78.78,0,0,0,.52,0h.37a7.49,7.49,0,0,0,1.36.21,18.34,18.34,0,0,1,6.75,2.4A24.68,24.68,0,0,1,42.3,19a16.84,16.84,0,0,1,.45,3.11c0,.06,0,.13.07.15v.3a.78.78,0,0,0,0,.52v1.41a.78.78,0,0,0,0,.52v.52c-.07.57-.07,1.15-.13,1.73a13.1,13.1,0,0,1-1,3.57,12.88,12.88,0,0,1-3.35,4.76,15.53,15.53,0,0,1-4.86,2.95,25.06,25.06,0,0,1-6,1.48c-.83.1-1.68.09-2.52.13-.13,0-.27,0-.4,0H24c-.12-.08-.26,0-.39,0h-.35c-.15,0-.31,0-.45,0H21.71c-.12-.08-.26,0-.39,0H21c-.15,0-.31,0-.45,0h-.67a3.24,3.24,0,0,0-1-.06,22.47,22.47,0,0,1-5.06-.62A21.2,21.2,0,0,1,5.58,36,13.7,13.7,0,0,1,.19,27.5,15.26,15.26,0,0,1,0,25.69c0-.12,0-.25,0-.36V25a.78.78,0,0,0,0-.52V23.18a1,1,0,0,0,0-.59Z"/><path class="cls-2" d="M0,22.58a.57.57,0,0,1,0,.59Z"/><path class="cls-3" d="M0,24.52A.46.46,0,0,1,0,25Z"/><path class="cls-4" d="M42.83,25a.46.46,0,0,1,0-.52Z"/><path class="cls-5" d="M42.83,23.1a.46.46,0,0,1,0-.52Z"/><path class="cls-6" d="M22.16.2a.45.45,0,0,1-.52,0Z"/><path class="cls-7" d="M20.29.27c-.15,0-.31.06-.44-.07h.45Q20.37.24,20.29.27Z"/><path class="cls-8" d="M20.52,40.2c.13-.13.29-.06.44-.07s.05,0,0,.07Z"/><path class="cls-9" d="M22.83,40.2c.14-.11.3-.06.45-.07s0,0,0,.07Z"/><path class="cls-10" d="M20.29.27V.2h.37C20.56.3,20.42.27,20.29.27Z"/><path class="cls-11" d="M21,40.2v-.07h.37q.08,0,0,.07Z"/><path class="cls-12" d="M21.34,40.2s0,0,0-.07.26,0,.37.07Z"/><path class="cls-13" d="M23.27,40.2s0,0,0-.07h.37s0,0,0,.07Z"/><path class="cls-14" d="M23.64,40.2s0,0,0-.07.26-.05.37.07Z"/><path class="cls-15" d="M22.49,39.61a36.35,36.35,0,0,1-10.65-1.41,17.87,17.87,0,0,1-6.72-3.6,12.7,12.7,0,0,1-4.3-8A23.23,23.23,0,0,1,4.13,11.33a22.23,22.23,0,0,1,7-7.43A17.75,17.75,0,0,1,22,.83,18.45,18.45,0,0,1,32.12,4.48a24.16,24.16,0,0,1,9.69,15.19,19.48,19.48,0,0,1-.33,9.56A12.63,12.63,0,0,1,35.07,37a22.12,22.12,0,0,1-7.41,2.25A40.27,40.27,0,0,1,22.49,39.61Z"/><path class="cls-1" d="M22.22,35.2a28.28,28.28,0,0,1-7.73-1A13.72,13.72,0,0,1,8,30.55a10,10,0,0,1-2.63-5.66,17.52,17.52,0,0,1,2-10.48,17.07,17.07,0,0,1,5.92-6.72,13.82,13.82,0,0,1,15.2-.46,17.86,17.86,0,0,1,7.4,8.18,17.24,17.24,0,0,1,1.73,8.09,11.68,11.68,0,0,1-2,6.54,10.79,10.79,0,0,1-5,3.77A23,23,0,0,1,22.22,35.2Z"/><path class="cls-16" d="M21,37.12c0,.32,0,.63,0,1,0,.13,0,.29-.19.28s-.15-.16-.15-.27q0-.63,0-1.26c0-.14,0-.32.18-.34s.34,0,.44.19a5.51,5.51,0,0,0,.59,1q0-.47,0-.95c0-.14,0-.24.21-.23s.14.14.14.24q0,.67,0,1.34c0,.12,0,.27-.15.29a.34.34,0,0,1-.41-.16l-.55-1.08Z"/><path class="cls-16" d="M29.61,37a.86.86,0,0,1-1,.89c-.49,0-.83-.45-.82-1.08a.89.89,0,0,1,1-.89C29.3,35.9,29.61,36.32,29.61,37Z"/><path class="cls-16" d="M16.77,4.36a.94.94,0,0,1-.91,1,1,1,0,0,1-.93-1,.92.92,0,0,1,.89-1A1,1,0,0,1,16.77,4.36Z"/><path class="cls-17" d="M36,12.47a.92.92,0,0,1-.92-.91,1,1,0,0,1,1.07-1,.91.91,0,0,1,.91.88A1.05,1.05,0,0,1,36,12.47Z"/><path class="cls-16" d="M9.58,7.84l.75.8c.09.09.22.17,0,.32s-.23,0-.31-.11c-.29-.32-.58-.64-.86-1-.07-.08-.26-.13-.13-.28s.2-.23.41-.16c.39.14.8.24,1.28.38L10,7c-.09-.1-.16-.17,0-.29s.21,0,.29.08c.31.34.62.68.92,1,.06.07.22.12.11.26a.3.3,0,0,1-.35.12C10.53,8.08,10.09,8,9.58,7.84Z"/><path class="cls-16" d="M18.4,3.94c-.11-.41-.19-.75-.3-1.09,0-.15,0-.19.13-.23s.19,0,.22.15c.1.46.23.91.34,1.37,0,.1.11.22,0,.29a.28.28,0,0,1-.37-.06c-.27-.27-.56-.53-.84-.78,0,0-.08-.14-.19-.1.09.34.18.68.28,1,0,.13.05.21-.11.24s-.19,0-.22-.16c-.1-.46-.23-.91-.34-1.37,0-.09-.13-.22,0-.28s.26-.12.4,0C17.72,3.28,18,3.58,18.4,3.94Z"/><path class="cls-16" d="M32.31,6.74l-.7.85c-.08.1-.14.21-.29.08s-.05-.2,0-.3c.29-.34.58-.68.87-1,.07-.08.1-.27.27-.17s.26.17.21.38c-.09.41-.13.83-.21,1.33l.69-.85c.07-.08.12-.2.26-.07s.11.18,0,.3c-.31.35-.61.71-.92,1.07-.06.07-.09.21-.22.14a.29.29,0,0,1-.19-.32C32.19,7.71,32.25,7.25,32.31,6.74Z"/><path class="cls-18" d="M4.08,23.64c0,.21,0,.31-.28.29-.44,0-.89,0-1.33,0-.1,0-.25.07-.27-.1s-.06-.29.12-.39l1.08-.63c0-.18-.13-.09-.2-.09a2.34,2.34,0,0,0-.61,0H2.45c-.13,0-.24,0-.24-.18s.11-.18.24-.18l1.41,0c.09,0,.22-.05.23.1s0,.24-.12.32c-.36.22-.71.45-1.06.68,0,.2.16.09.24.1A4.39,4.39,0,0,1,4.08,23.64Z"/><path class="cls-16" d="M25,3.3c-.08.92-.74,1.21-1.63.93-.13,0-.08-.12-.07-.2l.24-1.49c0-.07,0-.18.1-.16.42.07.87,0,1.19.41A.9.9,0,0,1,25,3.3Z"/><path class="cls-17" d="M6.91,13.25A2,2,0,0,1,6.5,14c-.08.12-.15,0-.22,0-.43-.25-.85-.5-1.28-.74-.15-.08-.16-.15-.07-.28s.17-.3.27-.44a.82.82,0,0,1,1-.39A1.09,1.09,0,0,1,6.91,13.25Z"/><path class="cls-17" d="M8.18,8.87A1,1,0,0,1,9,10.37c-.38.61-.46.62-1,.16a8.94,8.94,0,0,0-.74-.62c-.2-.14-.18-.24,0-.4S7.79,8.85,8.18,8.87Z"/><path class="cls-19" d="M34.71,11.14c-.28-.17-.29-.37-.11-.59a.84.84,0,0,0,.1-.2.35.35,0,0,0-.08-.44c-.16-.12-.22.09-.33.14s-.24.39-.46.08c-.07-.1-.08-.15,0-.24q.61-.48,1.21-1c.11-.09.17-.06.24,0s.3.36.43.56a.45.45,0,0,1,.05.52.43.43,0,0,1-.51.21c-.17-.05-.19,0-.21.15A2.23,2.23,0,0,1,34.71,11.14Z"/><path class="cls-17" d="M38.39,13.87a.86.86,0,0,1-.59.81.94.94,0,0,1-1.11-.27,5.31,5.31,0,0,1-.33-.61.13.13,0,0,1,.06-.2l1.42-.71c.07,0,.13-.07.18,0A2.24,2.24,0,0,1,38.39,13.87Z"/><path class="cls-19" d="M38.84,23.5c-.11-.31,0-.45.26-.52a.91.91,0,0,0,.29-.15.33.33,0,0,0,.11-.37c0-.15-.19-.07-.29-.07a1.47,1.47,0,0,0-.26,0c-.15,0-.2,0-.21-.19s0-.22.17-.22l1.56,0c.11,0,.17,0,.17.15a7.75,7.75,0,0,1,0,.78.45.45,0,0,1-.79.26c-.11-.15-.16-.15-.29,0A1.68,1.68,0,0,1,38.84,23.5Z"/><path class="cls-16" d="M5.33,16.48c0,.32-.14.48-.44.44a.87.87,0,0,0-.29,0,.33.33,0,0,0-.27.32c0,.16.16.11.25.16a.85.85,0,0,0,.24.08c.14,0,.18.09.13.23s-.11.2-.27.14l-1.4-.48c-.11,0-.19-.06-.15-.2a5.35,5.35,0,0,1,.29-.76.43.43,0,0,1,.81,0c.08.18.14.22.3.11a.52.52,0,0,1,.22,0Z"/><path class="cls-16" d="M16.38,36.26l-.26,1.49c0,.14-.11.17-.24.15s-.16-.09-.14-.21a1.47,1.47,0,0,1,0-.26c.15-.35,0-.4-.33-.45s-.33,0-.35.26,0,.22-.06.33-.07.18-.2.14-.21-.06-.18-.22c.1-.5.19-1,.28-1.49,0-.12.06-.19.19-.17s.22.05.19.21,0,.12,0,.18a.4.4,0,0,0,.54.48c.19-.07.13-.29.16-.45s0-.24.22-.22S16.41,36.15,16.38,36.26Z"/><path class="cls-16" d="M12.28,6.75a.57.57,0,0,0-.46.65c0,.13.13.24,0,.35s-.22.15-.27-.07q-.2-.79-.44-1.57c-.07-.22.13-.23.22-.33a.21.21,0,0,1,.32,0l1.24.89c.07,0,.26.09.12.23s-.21.28-.4.09A2.53,2.53,0,0,0,12.28,6.75Z"/><path class="cls-16" d="M7.31,12.6c-.34-.5-.68-1-1-1.49-.13-.18,0-.27.09-.38s.11-.2.29-.14c.49.17,1,.3,1.49.46.09,0,.27,0,.16.2s-.11.32-.32.19-.48,0-.64.22a.27.27,0,0,0,0,.38C7.58,12.3,7.57,12.31,7.31,12.6Z"/><path class="cls-20" d="M39.88,23.84l.59,0c.16,0,.21.07.2.23s-.1.19-.24.18l-1-.07c-.25,0-.45.08-.47.36s.17.4.41.43.64.06,1,.08c.14,0,.23,0,.21.21s-.12.19-.25.17c-.31,0-.62-.05-.92-.1-.52-.09-.75-.37-.71-.82s.29-.71.85-.71h.33Z"/><path class="cls-16" d="M19.83,2.39c.19,0,.26,0,.32.13.21.46.43.91.64,1.37,0,.07.22.22,0,.28s-.33.12-.38-.13-.26-.35-.54-.31-.31.1-.31.32,0,.27-.2.3-.27,0-.22-.19c.13-.53.26-1.05.38-1.58C19.55,2.34,19.75,2.41,19.83,2.39Z"/><path class="cls-19" d="M17.18,36.56c0,.29-.06.56-.08.83a.35.35,0,0,0,.35.43.35.35,0,0,0,.4-.35q.07-.48.13-1c0-.13,0-.25.21-.22s.19.12.17.26c0,.34-.08.69-.14,1s-.37.6-.86.54a.63.63,0,0,1-.63-.71,6.72,6.72,0,0,1,.09-.85c0-.15-.09-.43.24-.39S17.14,36.44,17.18,36.56Z"/><path class="cls-19" d="M19.5,36.4a.27.27,0,0,1,.33.24c.12.48.26.95.39,1.43,0,.09.12.24-.07.27s-.29,0-.3-.18-.27-.29-.48-.31-.35,0-.4.25a.2.2,0,0,1-.29.15c-.2-.07-.07-.2,0-.3.18-.44.37-.89.55-1.33C19.25,36.46,19.31,36.36,19.5,36.4Z"/><path class="cls-19" d="M3.11,24.42c.74,0,1.05.16,1.11.72a.64.64,0,0,1-.5.76c-.38.09-.78.11-1.17.18-.16,0-.17-.07-.19-.19s0-.2.17-.21l1-.1c.26,0,.46-.14.43-.45s-.27-.36-.52-.34-.61.06-.92.09c-.12,0-.22,0-.23-.14s0-.24.18-.24S2.88,24.44,3.11,24.42Z"/><path class="cls-16" d="M26,38c0,.11,0,.15-.08.16s-.28.06-.32-.1c-.08-.35-.34-.27-.58-.27a.28.28,0,0,0-.32.27.22.22,0,0,1-.31.21c-.17-.05-.05-.19,0-.28.12-.46.26-.93.37-1.39a.33.33,0,0,1,.63-.06C25.58,37.08,25.8,37.58,26,38Z"/><path class="cls-20" d="M38.95,21.06c0,.13,0,.27.07.4s0,.2-.11.22-.18,0-.19-.15c0-.29-.07-.59-.11-.88s0-.19.18-.21l1.47-.17c.14,0,.2,0,.22.16s.07.54.11.81c0,.11,0,.16-.13.17s-.17,0-.18-.13,0-.25,0-.37,0-.3-.2-.25-.33,0-.26.29a1.1,1.1,0,0,1,0,.18c0,.11,0,.23-.13.24s-.16-.13-.16-.23,0-.46-.35-.37C39,20.83,38.91,20.89,38.95,21.06Z"/><path class="cls-19" d="M26.37,3.81c0,.26-.19.2-.33.14s-.4-.08-.44.23,0,.23.17.26a1.25,1.25,0,0,1,.25.07c.12.05.38,0,.3.24s-.28.07-.39,0c-.82-.21-.82-.22-.58-1l0-.18c.26-.91.26-.9,1.15-.55.11,0,.18.07.14.2s-.12.14-.23.1l-.28-.09c-.15,0-.29-.13-.36.13s0,.27.22.32S26.33,3.65,26.37,3.81Z"/><path class="cls-19" d="M31.18,6.52,31,6.39c-.15-.11-.26-.25-.43,0s-.05.33.14.44L31,7a.1.1,0,0,1,0,.18c-.05.06-.09.16-.2.08L30,6.72c-.1-.07,0-.15,0-.22.28-.41.57-.81.84-1.22.09-.13.16-.15.29-.05s.42.3.64.45.14.12.06.24-.16.08-.24,0l-.27-.2c-.13-.1-.22-.17-.35,0s-.07.28.1.37a1.77,1.77,0,0,1,.22.14c.06,0,.08.09,0,.16S31.28,6.53,31.18,6.52Z"/><path class="cls-19" d="M5.79,15.43a1.75,1.75,0,0,1-.29.78c-.06.1-.12.14-.23.06s-.12-.12,0-.23a2,2,0,0,0,.2-.39c0-.1.07-.22,0-.3s-.21,0-.3.05-.26.23-.4.33a.52.52,0,0,1-.62,0,.48.48,0,0,1-.18-.56,3.48,3.48,0,0,1,.23-.54c0-.1.12-.1.21,0s.12.09.06.2-.38.42-.11.6.36-.17.52-.3A.67.67,0,0,1,5.48,15,.49.49,0,0,1,5.79,15.43Z"/><path class="cls-19" d="M39.25,15.63c0,.14,0,.17-.11.19s-.15,0-.18-.08a1.07,1.07,0,0,0-.1-.28c-.08-.11,0-.38-.31-.26s-.21.24-.12.41a1.06,1.06,0,0,1,.08.21.11.11,0,0,1-.08.14c-.07,0-.15.06-.19,0a2,2,0,0,1-.1-.28c0-.17-.12-.24-.31-.14s-.33.12-.19.36.11.25.17.37.06.18-.07.23-.18,0-.22-.11c-.1-.26-.21-.53-.32-.79s0-.22.13-.27l1.38-.54c.08,0,.16-.1.21,0Z"/><path class="cls-19" d="M3.87,18.44c.06.15-.23.34,0,.48s.39.07.48-.24-.06-.49.22-.45.09.35.06.51c-.15.72-.16.71-.89.53l-.87-.2c-.17,0-.27-.09-.19-.29a5.77,5.77,0,0,0,.18-.72c0-.12.06-.18.2-.15s.13.13.1.23a2.35,2.35,0,0,1-.09.32c-.08.17-.05.27.15.31s.28,0,.3-.2a1.39,1.39,0,0,1,0-.22c0-.08,0-.18.17-.14S4,18.3,3.87,18.44Z"/><path class="cls-19" d="M40.29,19.33c0,.24-.05.46-.29.55a.56.56,0,0,1-.67-.14.73.73,0,0,1-.19-.31c0-.33-.24-.33-.49-.25-.09,0-.2.13-.31,0a.22.22,0,0,1,.14-.38l1.41-.29c.11,0,.22-.05.25.12S40.25,19.11,40.29,19.33Z"/><path class="cls-19" d="M3.9,20.41c-.46-.21-.82-.41-1.19-.55a.23.23,0,0,1-.16-.34c.07-.22.21-.05.29,0,.46.24.9.51,1.36.75.14.07.11.17.1.28a.18.18,0,0,1-.18.19L2.56,21c-.08,0-.24.08-.22-.08s-.06-.34.21-.36C3,20.53,3.38,20.47,3.9,20.41Z"/><path class="cls-16" d="M24,36.9c-.28-.1-.57-.25-.8.07a.89.89,0,0,0,0,.92c.16.21.34.22.81.05.1.21,0,.33-.18.39a1,1,0,0,1-.69,0A1,1,0,0,1,22.72,37a.83.83,0,0,1,1.06-.5C24,36.56,24,36.6,24,36.9Z"/><path class="cls-20" d="M29.14,5.49a.66.66,0,0,0,.47.64c.06,0,.24,0,.15.17s-.14.19-.29.12a1.05,1.05,0,0,1-.74-.84,1,1,0,0,1,.47-.94.94.94,0,0,1,1.08,0c.09.06.26.08.16.26s-.19.1-.32,0A.63.63,0,0,0,29.14,5.49Z"/><path class="cls-20" d="M12.57,5.4a1,1,0,0,1,.62-.87c.09,0,.2-.13.27,0s0,.18-.11.25c-.45.23-.53.54-.28.93s.58.41,1,.14c.07,0,.12-.19.23-.07a.19.19,0,0,1,0,.29,1.16,1.16,0,0,1-1.09.27A1,1,0,0,1,12.57,5.4Z"/><path class="cls-18" d="M26.88,37c.06-.21.14-.4.18-.6a.25.25,0,0,1,.34-.2c.22.06,0,.21,0,.3a2.49,2.49,0,0,0-.26,1.43.15.15,0,0,1-.14.21c-.1,0-.23,0-.23-.12,0-.67-.48-1.09-.75-1.62C26.3,36.27,26.3,36.27,26.88,37Z"/><path class="cls-20" d="M33.16,9.44,33,9.2c-.08-.11,0-.15.09-.2.26-.26.52-.52.81-.76s.18-.25,0-.4-.26-.12-.1-.28.23,0,.32.08l.67.69c.08.08.21.15,0,.29s-.2,0-.26-.08c-.17-.26-.31-.18-.48,0s-.49.49-.73.73Z"/><path class="cls-18" d="M39.48,16.28c.05,0,0,.12.07.2s0,.19-.15.23c-.34.1-.68.22-1,.3s-.3.18-.19.4.07.23.12.35,0,.15-.1.18-.16,0-.2-.09L37.72,17c0-.09,0-.14.08-.17Z"/><path class="cls-18" d="M27.32,3.27c.19.07.38.08.25.35s-.28.69-.43,1c-.08.18-.07.26.13.32s.28.1.42.15.15.08.1.19-.08.16-.19.11l-.86-.34c-.11,0-.12-.1-.08-.2l.58-1.48A.46.46,0,0,1,27.32,3.27Z"/><path class="cls-21" d="M21.12,3.21c0-.25,0-.49,0-.74s.08-.2.22-.2.19.05.19.2c0,.36,0,.72,0,1.07s.08.35.33.31a3,3,0,0,1,.33,0c.09,0,.17,0,.17.13s0,.17-.14.17h-.92c-.14,0-.15-.1-.14-.2s0-.49,0-.74Z"/><path class="cls-22" d="M6.24,14.48c0,.23-.17.35-.33.28L4.59,14.1c-.14-.07-.17-.13-.1-.28s.14-.16.28-.08c.43.23.88.44,1.32.66C6.15,14.43,6.23,14.44,6.24,14.48Z"/><path class="cls-21" d="M2.59,21.44l1.37.1c.15,0,.22,0,.21.21s-.06.21-.23.19c-.48-.05-1-.09-1.44-.12-.17,0-.24-.05-.22-.24S2.37,21.37,2.59,21.44Z"/><path class="cls-20" d="M14.15,4.06c.09,0,.11.08.14.15.22.44.43.88.66,1.32.08.15,0,.2-.1.28s-.21,0-.27-.11L14,4.4A.22.22,0,0,1,14.15,4.06Z"/><path class="cls-23" d="M41.13,25.16c-.13,0-.16-.1-.21-.16s-.2-.2-.12-.35.08,0,.12,0,.28.13.26.32S41.15,25.09,41.13,25.16Z"/><path class="cls-24" d="M4.08,23.64c-.44-.08-.89,0-1.35,0a.19.19,0,0,1,.17-.12c.27.12.55,0,.82.06C3.85,23.55,4,23.48,4.08,23.64Z"/><path class="cls-25" d="M2.6,22.72a2.38,2.38,0,0,1,.83,0c.2,0,0,.08,0,.12C3.14,22.67,2.86,22.8,2.6,22.72Z"/><path class="cls-26" d="M22,34.57a25.64,25.64,0,0,1-7.38-.9,13.13,13.13,0,0,1-6.18-3.51,9.54,9.54,0,0,1-2.55-6,17.67,17.67,0,0,1,4.42-13,14.46,14.46,0,0,1,8.36-5,13.17,13.17,0,0,1,8.73,1.25,17.47,17.47,0,0,1,7.94,8.35A16.58,16.58,0,0,1,37,23.53a10.75,10.75,0,0,1-2.34,6.75,10.45,10.45,0,0,1-4.22,2.94,20.4,20.4,0,0,1-6.89,1.34C23,34.58,22.52,34.57,22,34.57Z"/><path class="cls-27" d="M28.22,36.76a.47.47,0,0,1,.48-.53c.3,0,.52.33.51.78a.47.47,0,0,1-.48.53C28.43,37.53,28.22,37.22,28.22,36.76Z"/><path class="cls-27" d="M15.31,4.2c0-.32.18-.51.46-.51a.69.69,0,0,1,.62.75c0,.33-.19.55-.47.53A.72.72,0,0,1,15.31,4.2Z"/><path class="cls-28" d="M36.24,11a.43.43,0,0,1,.46.47.78.78,0,0,1-.76.68.45.45,0,0,1-.48-.49A.77.77,0,0,1,36.24,11Z"/><path class="cls-29" d="M24.54,3.36a.62.62,0,0,1-.69.67c-.15,0-.21-.08-.17-.24a5,5,0,0,0,.11-.8c0-.29.17-.3.36-.22A.57.57,0,0,1,24.54,3.36Z"/><path class="cls-30" d="M6.61,13.13a.58.58,0,0,1-.17.41c-.14.12-.24,0-.35-.1s-.38-.23-.58-.31-.21-.27-.06-.43a.55.55,0,0,1,.67-.15A.75.75,0,0,1,6.61,13.13Z"/><path class="cls-29" d="M8.86,9.92a.52.52,0,0,1-.24.48c-.15.09-.23-.09-.33-.16S8,9.94,7.78,9.81s-.18-.27,0-.41a.56.56,0,0,1,.65-.08A.72.72,0,0,1,8.86,9.92Z"/><path class="cls-31" d="M35.48,9.67a.26.26,0,0,1-.26.29c-.2,0-.31-.14-.41-.28s.36-.42.4-.39A.52.52,0,0,1,35.48,9.67Z"/><path class="cls-30" d="M38.05,13.78a.67.67,0,0,1-.55.58.54.54,0,0,1-.67-.24c-.09-.14-.12-.25.08-.34s.43-.23.65-.34S38,13.38,38.05,13.78Z"/><path class="cls-32" d="M40.08,22.37c.23-.06.32,0,.31.21s-.05.36-.27.37-.31-.2-.33-.4S40,22.44,40.08,22.37Z"/><path class="cls-33" d="M4.12,16.93c-.06.09,0,.32-.18.28s-.42,0-.43-.23a.34.34,0,0,1,.31-.39C4,16.57,4.12,16.71,4.12,16.93Z"/><path class="cls-34" d="M11.34,6l.69.52-.41.3Z"/><path class="cls-35" d="M7,11.63,6.59,11a.74.74,0,0,1,.61.14C7.4,11.36,7.09,11.44,7,11.63Z"/><path class="cls-36" d="M19.8,2.67l.21.46c.12.26,0,.36-.25.34-.13,0-.14-.06-.12-.16s0-.21.07-.32S19.76,2.81,19.8,2.67Z"/><path class="cls-37" d="M19.43,36.87c.12.23.28.44.18.65s-.27,0-.44,0Z"/><path class="cls-38" d="M25.06,36.77l.31.73c-.17,0-.42.1-.45,0S25,37.08,25.06,36.77Z"/><path class="cls-37" d="M40,19.2c0,.21-.08.35-.3.35a.36.36,0,0,1-.35-.4c0-.27.27-.18.42-.22S39.94,19.1,40,19.2Z"/><path class="cls-39" d="M21.45,26.94l-1,.89h.95A4.1,4.1,0,0,1,21,29.05a1.53,1.53,0,0,1-1.35.82,23.16,23.16,0,0,1-3.16,0,.89.89,0,0,1-.79-.51,1.9,1.9,0,0,1,.43-2.3.77.77,0,0,0,.28-.67,10.69,10.69,0,0,1,0-1.23.52.52,0,0,0-.34-.57,7.56,7.56,0,0,1-3.21-3.1,7.2,7.2,0,0,1-.61-2.59A23.61,23.61,0,0,1,12,16.5c0-.26-.1-.35-.35-.33a2.89,2.89,0,0,1-.59,0,.53.53,0,0,1-.5-.54c0-.45,0-.89,0-1.34A.26.26,0,0,1,10.8,14a4.71,4.71,0,0,1,.43-.21.41.41,0,0,0,.3-.48c0-.51,0-1,0-1.52,0-.17,0-.24.23-.24.89,0,1.78,0,2.68,0,.2,0,.25.07.26.26,0,.45,0,.89,0,1.34,0,.25.06.41.3.47.51.12.66.45.61.95a7.29,7.29,0,0,0,0,.93.51.51,0,0,1-.56.61h-.19c-.3,0-.38.1-.34.39a6.4,6.4,0,0,0,.69,2.56,1.87,1.87,0,0,0,1.14.89c.2.05.33.05.31-.22,0-.46,0-.92,0-1.37,0-.25-.1-.32-.33-.3s-.44,0-.75,0l.76-1.19c.07-.12.2-.08.3-.09a5.64,5.64,0,0,0,1.77-.37,2.13,2.13,0,0,0,1.32-1.79,6.06,6.06,0,0,0,0-1.44.37.37,0,0,1,.12-.36,3,3,0,0,1,3.83.08,1.58,1.58,0,0,1,.44.68.58.58,0,0,0,.52.44,6.2,6.2,0,0,1,1.71.59,1.7,1.7,0,0,1,.72.68c.09.17.08.26-.16.26-.48,0-1,0-1.45.07a1.24,1.24,0,0,0-.72.27A3.75,3.75,0,0,0,27,16a3.85,3.85,0,0,1-3,1.24c-.16,0-.41-.09-.47.09a.72.72,0,0,0,.14.7,2.28,2.28,0,0,0,2.53.66,7.28,7.28,0,0,1,2.73-.79h.71a6.83,6.83,0,0,0,3.75-.67,1,1,0,0,1-.43.84,5,5,0,0,1-2.52.89l-.33,0c-.52.06-.68.27-.6.79a.36.36,0,0,0,.4.35.31.31,0,0,0,.32-.4c-.1-.39.11-.39.38-.38A6.61,6.61,0,0,0,33,18.93a3.28,3.28,0,0,1-2.32,1.5c-.34,0-.69.05-1,.1s-.27.39-.3.62.14.35.38.34.34-.1.3-.29.1-.24.26-.25a4.32,4.32,0,0,0,2.14-.58c.13.09,0,.17,0,.23a2,2,0,0,1-1.63,1c-.38,0-.76.09-1.15.1s-.28.23-.31.41-.06.43.19.55a.34.34,0,0,0,.51-.31c0-.11-.08-.27.13-.27a4.75,4.75,0,0,0,2.21-.49A2.42,2.42,0,0,1,30,23.17c-.63,0-1.26,0-1.9,0-.27,0-.38-.05-.36-.35s0-.84,0-1.33a6.85,6.85,0,0,1-1.54,1.4,3.49,3.49,0,0,1-2,.11l.45.52a4.49,4.49,0,0,1,1.17,2.63c0,.27.13.33.37.3s.52,0,.84-.07l-.76,1.24h.95a5.21,5.21,0,0,1-1,1.79.86.86,0,0,1-.52.25,14.16,14.16,0,0,1-3.15,0,.76.76,0,0,1-.78-1c0-.52.18-1,.26-1.54a1.35,1.35,0,0,0-1.23-1.59c-.15,0-.21,0-.2.17s0,.15,0,.22c0,.31-.1.69,0,.91S21.13,26.81,21.45,26.94Z"/><path class="cls-39" d="M30.71,31.27a2.82,2.82,0,0,0-.62-1.82,5,5,0,0,0,.24,2.47,1.48,1.48,0,0,1-1-1.53c0-.1.09-.24-.07-.29s-.2.07-.25.17a.34.34,0,0,1-.4.19c-.26,0-.38.06-.32.33-.12,0-.16-.08-.22-.13-.38-.36-.5-.73-.34-1a.92.92,0,0,1,1.08-.26c.19.06.37.14.56.21.1-.33,0-.48-.34-.49-.82,0-1.15-.43-1.08-1.25A18.7,18.7,0,0,0,28,25.38a.91.91,0,0,0-.45-.83.79.79,0,0,1-.44-.58,3.64,3.64,0,0,0,1.14.22c.22,0,.31,0,.27-.26-.07-.36.11-.42.43-.42.73,0,1.46,0,2.19,0,.24,0,.36,0,.35.32s-.11.6.33.65c0,0,0,.13.05.2a13.08,13.08,0,0,1-.84,6A1.61,1.61,0,0,1,30.71,31.27Z"/><path class="cls-39" d="M8.85,27.2a4.24,4.24,0,0,0,1.23-.75,4.25,4.25,0,0,1,2.82-1.08,1.25,1.25,0,0,0,1.25-.65c.37-.53.4-.51.92-.13s.53.38.14.91l-.07.09A1.32,1.32,0,0,0,14.78,27a3.08,3.08,0,0,1-.7,2.84l-.4.49A6.36,6.36,0,0,0,12.48,32a4.28,4.28,0,0,1-.42-1,.76.76,0,0,1,.17-.76,6,6,0,0,0,1.08-1.68,3.24,3.24,0,0,0,.19-.64.84.84,0,0,0-1-1.07,4,4,0,0,0-2,.82,1.1,1.1,0,0,1-1.47,0l-.56-.37C8.54,27.1,8.75,27.31,8.85,27.2Z"/><path class="cls-39" d="M30.73,14.79h1.52a1,1,0,0,1,.84,1.73,1.6,1.6,0,0,1-.49.45c-.14.08-.28.16-.25.36s-.1.16-.22.16l-2.78,0c-.16,0-.23-.06-.2-.22s-.09-.31-.25-.4a1.59,1.59,0,0,1-.55-.59.93.93,0,0,1,.84-1.45Z"/><path class="cls-39" d="M19.49,14.3a1.78,1.78,0,0,1-1.63,1.85,1.59,1.59,0,0,1-1.47-1.07,1.47,1.47,0,0,1,.4-1.66,2.87,2.87,0,0,1,.92-.62A1.3,1.3,0,0,1,19.47,14C19.49,14.1,19.49,14.21,19.49,14.3Z"/><path class="cls-39" d="M25.19,12.2a.46.46,0,0,1,0,.07c0,.47,0,.47.39.27a1.27,1.27,0,0,1,1.64.13A1,1,0,0,1,27,14.33a.24.24,0,0,1-.3,0,4.86,4.86,0,0,0-1.57-.63.71.71,0,0,1-.49-1A.87.87,0,0,1,25.19,12.2Z"/><path class="cls-39" d="M31,14.58c-.32,0-.64,0-1-.08a.7.7,0,0,1-.67-.74c0-.35,0-.69,0-1s.08-.26.28-.27c.62,0,.62,0,.57.59,0,0,0,0,0,.07-.07.94.33,1.08,1.25.89a.3.3,0,0,0,.24-.32c0-.31,0-.62,0-.93s.05-.3.29-.29c.73,0,.61-.09.61.6a6.9,6.9,0,0,1,0,.7.75.75,0,0,1-.78.77c-.26,0-.52,0-.78,0Z"/><path class="cls-39" d="M9.63,30.18c.51-.72.9-1.4,1.41-2a1.65,1.65,0,0,1,.45-.38.8.8,0,0,1,1.08.11A.91.91,0,0,1,12.51,29a1.09,1.09,0,0,1-.38.29c-.17.07-.34.15-.51.21Z"/><path class="cls-40" d="M31.38,12.91c-.08.23.07.55-.31.64-.19,0-.32,0-.36-.21a3.15,3.15,0,0,1-.06-.4c0-.45.14-.59.58-.46C31.48,12.55,31.31,12.78,31.38,12.91Z"/><path class="cls-41" d="M8.85,27.2c-.1.12-.27,0-.37.13s-.22-.07,0-.13A1.4,1.4,0,0,1,8.85,27.2Z"/><path class="cls-42" d="M13.44,17.46a13.83,13.83,0,0,0,1,3.07,4.3,4.3,0,0,0,1.19,1.41,1.33,1.33,0,0,0,.6.28c.12,0,.33-.07.35.1a2.29,2.29,0,0,1,0,.73c0,.1-.17,0-.26,0a3,3,0,0,1-2-1.66,8.44,8.44,0,0,1-.91-3.57C13.37,17.71,13.25,17.56,13.44,17.46Z"/><path class="cls-43" d="M12.76,13.78c-.16,0-.31,0-.28-.22s-.08-.17-.19-.16-.18,0-.18-.17,0-.19.16-.19.2,0,.2-.1-.13-.09-.2-.09-.17-.09-.18-.21.08-.17.19-.16.3,0,.3-.26.34-.17.43,0,.26.24.4,0,.38-.14.4-.05c.07.27.23.26.43.26s.08.1.09.17-.05.15-.16.15-.22,0-.22.17.1.14.2.14.17.06.17.18,0,.21-.18.21-.19,0-.18.12-.06.26-.26.26-.35,0-.33-.26-.1-.12-.19-.12-.18,0-.17.15S12.93,13.79,12.76,13.78Z"/><path class="cls-44" d="M13.12,15.52c-.38,0-.77,0-1.15,0s-.43-.1-.43-.41c0-.84,0-.85.82-.85h1.89c.28,0,.4.09.39.39,0,.93.1.86-.86.86h-.67Z"/><path class="cls-42" d="M19.63,16.88l1.15-2a.29.29,0,0,1,.42-.11c.15.09,0,.21-.07.31-.24.46-.49.91-.74,1.38.32.09.53,0,.66-.29s.37-.75.54-1.14a.37.37,0,0,1,.55-.23l-.81,2a.22.22,0,0,1-.24.13Z"/><path class="cls-45" d="M22.6,29.13c-.17-.64.45-.63.66-.93-.17-.32-.82-.28-.64-.91l1.27.91Z"/><path class="cls-45" d="M17.37,28.29c-.18-.33-.76-.3-.67-.91l1.24.83c.16.11,0,.16-.06.2-.3.18-.59.36-.9.52-.08,0-.18.21-.27.06a.25.25,0,0,1,.11-.35C17,28.54,17.2,28.41,17.37,28.29Z"/><path class="cls-44" d="M21.46,14.48a1.44,1.44,0,0,1-.55-.09c-.08,0-.17-.07-.18-.17a.19.19,0,0,1,.14-.19,1.82,1.82,0,0,1,1.36,0c.21.08.19.24,0,.35A1.41,1.41,0,0,1,21.46,14.48Z"/><path class="cls-46" d="M13.44,17.46c-.08.12,0,.26-.07.39a2.83,2.83,0,0,1-.08-.76c0-.07,0-.09.07-.06Z"/><path class="cls-47" d="M13.37,17l-.07.06a.47.47,0,0,1,0-.41C13.33,16.82,13.39,16.9,13.37,17Z"/><path class="cls-48" d="M29.34,26.21A2.73,2.73,0,0,1,29.73,28c0,.2-.13.41-.35.42s-.28-.21-.32-.4A2.94,2.94,0,0,1,29.34,26.21Z"/><path class="cls-44" d="M30.74,16.48H29.51c-.3,0-.42-.13-.42-.43,0-.82,0-.83.81-.83s1.39,0,2.08,0c.31,0,.46.08.44.42,0,.83.13.84-.83.83h-.85Z"/><path class="cls-43" d="M18.39,14.39a.53.53,0,0,1-.51.56.51.51,0,0,1-.48-.51.67.67,0,0,1,.58-.57A.45.45,0,0,1,18.39,14.39Z"/><path class="cls-49" d="M13.51,12.83c0,.23-.07.27-.26.27S13,13,13,12.85s.09-.24.27-.24S13.56,12.62,13.51,12.83Z"/><path class="cls-50" d="M13.11,15.23h-.92c-.19,0-.27-.09-.25-.27s0-.39.22-.39c.64,0,1.28,0,1.92,0,.22,0,.21.16.2.31s0,.34-.21.35h-1Z"/><path class="cls-51" d="M30.76,16.15h-.89c-.19,0-.37,0-.37-.28s.11-.34.36-.34h1.89c.21,0,.31.06.31.3s-.07.32-.29.31h-1Z"/><path class="cls-26" d="M49.56,26.48V6.92a.38.38,0,0,1,.4-.4h4.47a.38.38,0,0,1,.4.4v20.2c0,1.45.77,2.37,2.09,2.37a2.08,2.08,0,0,0,2.13-2.37V6.92a.38.38,0,0,1,.4-.4h4.47a.38.38,0,0,1,.4.4V26.48c0,5.15-2.82,7.77-7.4,7.77S49.56,31.63,49.56,26.48Z"/><path class="cls-26" d="M68,6.92a.38.38,0,0,1,.4-.4h5a.5.5,0,0,1,.56.4l4.55,17.18h.2V6.92a.38.38,0,0,1,.4-.4h3.82a.38.38,0,0,1,.4.4V33.48a.38.38,0,0,1-.4.4H78.11a.5.5,0,0,1-.56-.4L72.79,16.3h-.2V33.48a.38.38,0,0,1-.4.4H68.37a.38.38,0,0,1-.4-.4Z"/><path class="cls-26" d="M86.65,20.2c0-7.08.16-8.33.52-9.5,1-2.94,3.18-4.55,6.8-4.55,4.39,0,7,3.21,7.2,7.8,0,.24-.08.44-.36.48l-4.23.72a.35.35,0,0,1-.44-.36c-.08-2.17-.77-3.89-2.09-3.89a1.69,1.69,0,0,0-1.81,1.25c-.16.6-.24,1.09-.24,8s.08,7.44.24,8a1.69,1.69,0,0,0,1.81,1.25c1.33,0,2-1.72,2.09-3.89a.35.35,0,0,1,.44-.36l4.23.73c.28,0,.36.24.36.48-.24,4.59-2.82,7.8-7.2,7.8-3.62,0-5.84-1.61-6.8-4.55C86.81,28.53,86.65,27.29,86.65,20.2Z"/><path class="cls-26" d="M104.08,33.89a.38.38,0,0,1-.4-.4V6.92a.38.38,0,0,1,.4-.4h6.44c5,0,8,2.37,8,8.61s-3.18,8.61-8,8.61h-1.33A.21.21,0,0,0,109,24v9.5a.38.38,0,0,1-.4.4Zm9.21-18.75c0-3.1-.88-4-2.94-4h-1.17a.21.21,0,0,0-.24.24v7.48a.21.21,0,0,0,.24.24h1.17C112.41,19.12,113.3,18.23,113.3,15.13Z"/></svg>