<svg id="Capa_1" data-name="Capa 1" xmlns="http://www.w3.org/2000/svg" viewBox="0 0 150 50"><defs><style>.cls-1{fill:#24201f;}.cls-2{fill:#d00a15;}.cls-3{fill:#2859df;}.cls-4{fill:#d9e5ee;}.cls-5{fill:#caaa8f;}.cls-6{fill:#e3dd34;}.cls-7{fill:#0e722a;}.cls-8,.cls-9{fill:#fff;}.cls-9{stroke:#24201f;stroke-miterlimit:10;stroke-width:0.14px;}.cls-10{fill:#c9c533;}.cls-11{fill:#231f20;}</style></defs><title>UNDAC_b3</title><path class="cls-1" d="M24.35,38a1.08,1.08,0,0,1-.32.77c-.21.11-.38,0-.61-.16s-.37-.15-.51-.06a1.05,1.05,0,0,1-.54.22c-.22,0-.76,0-1.39,0A.94.94,0,0,1,20,38.2c-.17-.28-.52-.19-.71-.07s-.16.27,0,.27.29.08.29.22a.25.25,0,0,1-.16.21H18.9a2.15,2.15,0,0,0-.48-.56l-.05-.45c0-.7-.55-.07-.55-.07s-1.35-1.09-1.69-1.38A1.85,1.85,0,0,0,15,36.2L16.08,39H13.37l-.72-.67v.73H11.5v-.79l-.71.73H8.29l.92-2.94c-1.33.1-1.86,1-2.36,1.34s-.53,0-.73,0-.18.43-.34.82a.8.8,0,0,1-.91.4c-.23-.08.09-.28.23-.38s0-.39-.36-.39-1,.8-1.27.83-.65-.31-.88-.32-.26.2-.5.2-.67-.44-.8-.44-.36.19-.48.28-.21.25-.35.13S-.19,37.37.26,37a2.33,2.33,0,0,1,1.38-.29A3.86,3.86,0,0,0,2,36.59a18.22,18.22,0,0,0,1.89.8c.17,0,.25-.22.25-.38s0-.15-.1-.13a3.13,3.13,0,0,1-.44.11c-.13,0-.2,0-.2-.33s-.09-.41-.16-.39-.18.08-.18.3-.16.23-.28.16a1.21,1.21,0,0,1-.36-.67,1.18,1.18,0,0,1,.34-.75,8.24,8.24,0,0,0,.65-.76l2.22-.1a.75.75,0,0,0-.82-.73,4.53,4.53,0,0,0-1.08.21L2.43,28.08l3.4.57,0-.45-3.5-.6-.63-3.06,4.16.53-.15-.46L1.57,24,.9,20.81l.81-1.65v-.63l.73-1,1.29.91.09.75L6.1,20.86l.08.65,3.75,0v-.09a1.15,1.15,0,0,1-.23-.23v-1s-.19,0-1.41,0-1.66-1.35-1.66-1.79.36-1.37,1-1.35.74,1.33.72,1.45,0,.26.15.26c.68,0,.62-.26.64-.4s0-.35,0-1a.91.91,0,0,1,.74-.93.8.8,0,0,1,.56.17c.18.12.25.07.32,0s.41-.32.61-.31.35.16.41.61.23.57.38.58.15-.15.11-.26a2.12,2.12,0,0,1,.18-1.8,1.52,1.52,0,0,1,1.6-1c1.67,0,2.06.68,2.06.83a.34.34,0,0,1-.24.36c-.21.07-.09.16-.15.31a1.6,1.6,0,0,0-.35.88,4.75,4.75,0,0,0,.74,1.68,1.85,1.85,0,0,1,.24,1,3.91,3.91,0,0,1-.15.7,1.5,1.5,0,0,0,.2.3,1.45,1.45,0,0,1,.12.8l-.1,0,0,.31H18.5l0-.7,2.38-1.51c.11-.08.18-.67.18-.67l1.31-.95a5.94,5.94,0,0,1,.58.79,3.13,3.13,0,0,1,.14,1l.88,1.54-.76,3.06L19,24.67l-.06.53,4.14-.4-.75,3-3.48.46,0,.54,3.4-.49L20.77,34.2,18.9,34l-.11.49s2,.33,2.17.33.2.13.2.13a3.44,3.44,0,0,0,.77.75v.75a.49.49,0,0,1-.24.44c-.06.06-.15.23-.26.16a.38.38,0,0,1-.18-.32c0-.42-.23.09-.25.27a.27.27,0,0,1-.36.27c-.19-.08-.41-.28-.36.1s.64.16.72.14a7.55,7.55,0,0,0,.8-.46c.35-.21.48-.34.83-.14s.27.08.85.05S24.35,37.75,24.35,38Z"/><path class="cls-2" d="M12.6,29.39v5.83H8.3c-1.5,0-1.45-1.07-1.45-1.07V29.39Z"/><polygon class="cls-1" points="8.34 33.87 8.44 33.59 8.25 33.43 7.68 33.66 7.23 32.88 7.72 32.68 7.67 32.4 7.11 32.38 7.08 31.51 7.64 31.54 7.71 31.38 7.26 31.14 7.88 30.32 8.28 30.63 8.41 30.5 8.19 30.11 9.01 29.72 9.25 30.14 9.31 30.11 9.33 29.58 10.19 29.62 10.18 30.14 10.33 30.16 10.55 29.66 11.34 30.16 11.04 30.58 11.17 30.73 11.71 30.43 12.13 31.11 11.7 31.48 11.73 31.64 12.34 31.69 12.36 32.45 11.81 32.49 11.73 32.7 12.19 33.02 11.69 33.72 11.17 33.39 11.05 33.48 11.08 33.87 11.79 33.87 11.79 33.41 12.54 33.41 12.54 34.9 11.74 34.9 11.74 34.51 7.43 34.51 7.43 33.87 8.34 33.87"/><rect class="cls-3" x="6.85" y="22.39" width="10.99" height="6.59"/><path class="cls-1" d="M16,28.12H8.6L9,23.72h.12v-.29l1,0a2.46,2.46,0,0,0,.44-.11,3.34,3.34,0,0,1,1-.23,1.2,1.2,0,0,1,.85.39,1.15,1.15,0,0,1,.9-.34,2.78,2.78,0,0,1,1.1.34,1,1,0,0,0,.41.06l.76,0v.13h.1Z"/><path class="cls-4" d="M.53,37.38s-.13.1,0,.2.17.13.25.07.3-.32.3-.32.08-.11,0-.18-.19,0-.28,0Z"/><path class="cls-4" d="M2.39,37.84a.82.82,0,0,0,.48.19c.29,0,.45,0,.45-.1s-.13-.24-.26-.31-.48-.23-.64-.14A.2.2,0,0,0,2.39,37.84Z"/><path class="cls-4" d="M6.47,36.66s.13,0,.07-.16-.63-1.36-.63-1.36-.35-.14-.35,0,0,.28-.09.3a1,1,0,0,0-.34.11c-.12.07-.28.16-.37,0s-.09-.16,0-.3A.32.32,0,0,0,4.84,35c0-.06-.24-.07-.34-.07s-.25,0-.29.16,0,.24.06.24.05.18,0,.26,0,.23-.21.15a1,1,0,0,1-.33-.14c-.06,0-.24,0,0,.18a1.13,1.13,0,0,0,.72.29c.28,0,.58-.22.74-.23s.51,0,.59.1a1.68,1.68,0,0,1,.22.41c0,.07,0,.17-.08.17s-.17-.12-.19-.15-.09-.05-.11,0a.24.24,0,0,0,.22.25A3,3,0,0,0,6.47,36.66Z"/><path class="cls-4" d="M9.2,38c.07-.21.31-.78.39-1a2.24,2.24,0,0,1,.31-.58c0-.06.23-.22.21.18a4.12,4.12,0,0,1-.29,1.06,1.11,1.11,0,0,1-.48.71C9.08,38.47,9.11,38.24,9.2,38Z"/><path class="cls-4" d="M10.28,37.77s.33-.76.41-.92.26-.46.32-.55.22-.08.19.22a9,9,0,0,1-.27.9,1.15,1.15,0,0,1-.39.77c-.28.2-.38,0-.37-.11A.7.7,0,0,1,10.28,37.77Z"/><path class="cls-4" d="M13.38,36.28a.91.91,0,0,0,0,.52,2.17,2.17,0,0,1,.27.7,1.19,1.19,0,0,0,.34.62c.13.14.31.23.38.1a.5.5,0,0,0-.07-.51c-.15-.21-.38-.85-.49-1S13.44,36,13.38,36.28Z"/><path class="cls-4" d="M14.38,36.5s.06.3.14.67a2.72,2.72,0,0,0,.4,1c.17.19.37.25.43.13s0-.35-.13-.56-.38-1-.46-1.17a.68.68,0,0,0-.25-.32C14.43,36.26,14.38,36.36,14.38,36.5Z"/><rect class="cls-4" x="11.75" y="36.29" width="0.32" height="1.71"/><rect class="cls-4" x="12.33" y="36.19" width="0.3" height="1.81"/><path class="cls-4" d="M23.36,37.75a2.62,2.62,0,0,0,.23.21s.18.09.24,0a.17.17,0,0,0,0-.28c-.14-.09-.36-.22-.4-.15S23.31,37.69,23.36,37.75Z"/><path class="cls-4" d="M21.42,38.09s.3-.18.36-.2.22,0,.27,0a.15.15,0,0,1-.08.22,1.24,1.24,0,0,1-.42.12C21.38,38.29,21.3,38.16,21.42,38.09Z"/><ellipse class="cls-4" cx="18.69" cy="35.44" rx="0.06" ry="0.05"/><path class="cls-4" d="M18.44,36.74l.41-.85c.09-.17.13-.32.24-.36s.25-.08.27,0,0,.28.13.32a2.23,2.23,0,0,1,.33.09.18.18,0,0,0,.24,0c.09-.09.14-.19.08-.27s-.14-.14-.12-.23a.18.18,0,0,1,.2-.17c.14,0,.35,0,.38.18s0,.15-.08.23a.47.47,0,0,0,0,.34c.05,0,.21,0,.28,0s.23-.15.25-.1a.61.61,0,0,1-.61.43c-.46,0-.51-.08-.61-.16a.86.86,0,0,0-.63,0,1.07,1.07,0,0,0-.3.39c0,.06,0,.18.11.18a.2.2,0,0,0,.17-.11s.07,0,.07.05,0,.12-.29.17S18.33,36.94,18.44,36.74Z"/><path class="cls-4" d="M19.3,32a1.56,1.56,0,0,1,.48-.14c.16,0,.47,0,.48.14s0,.16-.19.19l-.58.1c-.12,0-.22,0-.24-.07S19.22,32.07,19.3,32Z"/><path class="cls-4" d="M19.27,32.81c0-.05.12-.09.29-.09a1.61,1.61,0,0,1,.47,0,.16.16,0,0,1,.1.13c0,.06-.06.13-.2.13l-.61,0C19.25,33,19.18,33,19.27,32.81Z"/><path class="cls-4" d="M19.24,31.23a.14.14,0,0,0,.16.07,2.9,2.9,0,0,1,.58-.08c.19,0,.44,0,.45-.18s-.22-.24-.59-.2S19.14,30.94,19.24,31.23Z"/><path class="cls-4" d="M19.27,30.26s-.1-.24.41-.31a2.2,2.2,0,0,1,.78,0c.12,0,.1.13.09.17s-.05.16-.3.16a4.43,4.43,0,0,0-.55,0C19.56,30.32,19.32,30.39,19.27,30.26Z"/><path class="cls-4" d="M19.22,29.4s0-.27.41-.3l.64,0c.14,0,.66-.06.68.12s-.24.17-.49.18-.68.06-.79.08S19.25,29.59,19.22,29.4Z"/><path class="cls-4" d="M19.31,27.39a.66.66,0,0,1,.63-.37c.52,0,.65-.07.81-.07s.54,0,.55.19-.33.24-.9.27-.83.12-1,.11S19.29,27.49,19.31,27.39Z"/><path class="cls-4" d="M19.34,26.7a.35.35,0,0,1,.18-.24,2,2,0,0,1,.79-.17h1a.17.17,0,0,1,.18.17c0,.11-.06.13-.22.14l-1.21.08C19.91,26.69,19.28,26.86,19.34,26.7Z"/><path class="cls-4" d="M19.42,25.8a.72.72,0,0,1,.47-.36c.3,0,1.15-.06,1.28-.06s.42,0,.43.21-.41.17-.73.2l-1.24.15C19.49,26,19.36,26,19.42,25.8Z"/><path class="cls-4" d="M5.35,27.23a.66.66,0,0,0-.63-.37c-.52,0-.65-.07-.81-.07s-.54,0-.55.19.33.24.9.27.83.12,1,.11S5.37,27.33,5.35,27.23Z"/><path class="cls-4" d="M5.32,26.5a.34.34,0,0,0-.18-.25,2.41,2.41,0,0,0-.79-.17h-1a.18.18,0,0,0-.18.17c0,.12.06.13.22.15l1.21.08C4.75,26.49,5.38,26.65,5.32,26.5Z"/><path class="cls-4" d="M5.11,25.66a.73.73,0,0,0-.45-.38c-.3-.06-1.14-.13-1.28-.14s-.42,0-.44.19.4.19.72.24,1.09.2,1.23.22S5.16,25.81,5.11,25.66Z"/><path class="cls-4" d="M19.48,23.75s.05-.23.51-.28,1.61-.06,1.74-.06.35,0,.35.14,0,.15-.53.18-1.29,0-1.45.06S19.43,23.93,19.48,23.75Z"/><path class="cls-4" d="M19.6,22.86s-.09.19.28.13a14.73,14.73,0,0,1,1.66-.12,2,2,0,0,0,.54,0c.08,0,.13,0,.13-.12s-.06-.14-.4-.16a16.27,16.27,0,0,0-1.8.09A.64.64,0,0,0,19.6,22.86Z"/><path class="cls-4" d="M19.59,22.17s0,.08.26.07.89-.07,1.12-.07h1.08c.15,0,.28-.09.28-.14a.28.28,0,0,0-.28-.18l-2,.09C19.91,22,19.5,22.07,19.59,22.17Z"/><path class="cls-4" d="M20.2,21s1-.74,1.22-.87a3.52,3.52,0,0,1,.64-.36c.09,0,.16,0,.3.15a.72.72,0,0,1,.3.59c0,.26-.14.3-.25.31a.31.31,0,0,1-.26-.26c0-.13,0-.26-.12-.26a.91.91,0,0,0-.4.21,6,6,0,0,1-1.13.66C20.19,21.29,20,21.19,20.2,21Z"/><path class="cls-4" d="M4.92,23.79s0-.23-.49-.31-1.6-.17-1.73-.18-.35,0-.36.12-.06.15.51.22,1.29.11,1.45.15S5,24,4.92,23.79Z"/><path class="cls-4" d="M4.86,22.9s.07.19-.29.1a14,14,0,0,0-1.65-.22,3.56,3.56,0,0,1-.54-.07c-.07,0-.12-.07-.12-.13s.07-.14.41-.14,1.59.16,1.79.21A.63.63,0,0,1,4.86,22.9Z"/><path class="cls-4" d="M4.91,22.21s0,.08-.26.05-.88-.13-1.12-.15L2.46,22c-.15,0-.28-.11-.28-.16a.3.3,0,0,1,.3-.16c.19,0,1.83.19,2,.22S5,22.11,4.91,22.21Z"/><path class="cls-4" d="M4.38,21s-.94-.8-1.16-1a3.72,3.72,0,0,0-.62-.4.38.38,0,0,0-.31.13c-.14.14-.36.31-.34.57s.12.31.23.32a.29.29,0,0,0,.28-.24c0-.12,0-.25.13-.25a1,1,0,0,1,.39.24,6.22,6.22,0,0,0,1.08.73C4.37,21.29,4.56,21.2,4.38,21Z"/><path class="cls-4" d="M3.66,28.94s-.09.1-.08.15.11.18.5.15a2.65,2.65,0,0,1,.84.08c.14,0,.38,0,.4-.07s-.2-.27-.67-.32S3.74,28.85,3.66,28.94Z"/><path class="cls-4" d="M4,29.91c0,.06,0,.19.22.19a3.36,3.36,0,0,1,.65,0c.17,0,.43.08.43,0s-.23-.31-.61-.36S4,29.74,4,29.91Z"/><path class="cls-4" d="M4.07,30.86c0,.05,0,.2.3.19a2.22,2.22,0,0,1,.69.08c.09,0,.2,0,.2-.06a.5.5,0,0,0-.45-.36C4.5,30.66,4.07,30.64,4.07,30.86Z"/><path class="cls-4" d="M4.21,31.93a.43.43,0,0,0,.37.16,2.34,2.34,0,0,1,.46,0c.06,0,.21,0,.21-.06a.4.4,0,0,0-.36-.34C4.64,31.7,4.12,31.63,4.21,31.93Z"/><path class="cls-4" d="M4.39,32.72c0,.08.1.13.22.13a3.27,3.27,0,0,1,.54,0c.12,0,.19,0,.15-.1s-.12-.21-.35-.22S4.38,32.56,4.39,32.72Z"/><path class="cls-4" d="M10.09,20.74s0,.2,0,.23-.06.11.07.16a2.85,2.85,0,0,0,.85.08l1.78-.06a1.66,1.66,0,0,1,.54.06,1.35,1.35,0,0,0,.56,0,2.07,2.07,0,0,1,.78,0,3.29,3.29,0,0,0,.75.19c.17,0,.7-.19.69-.49s-.05-.52-.43-.52-1.28.08-1.7.11-1.72,0-2.44,0a8.55,8.55,0,0,1-1.2-.1c-.13,0-.2-.05-.2,0S10.09,20.67,10.09,20.74Z"/><path class="cls-5" d="M14.8,20a2.21,2.21,0,0,0-.2-1.29A3.33,3.33,0,0,1,14,17.09,1,1,0,0,1,14.91,16a1.35,1.35,0,0,0-.59,1,3.31,3.31,0,0,0,.62,1.57,1.67,1.67,0,0,1,.34.87,4.79,4.79,0,0,0,0,.5s0,0-.09,0h-.3S14.8,20,14.8,20Z"/><path class="cls-6" d="M15.14,16.4a.65.65,0,0,0-.44.6,2.5,2.5,0,0,0,.41,1.15,3.15,3.15,0,0,1,.54,1.15c0,.33,0,.59.08.67s.25.05.3-.16a1.93,1.93,0,0,0-.11-.88c-.09-.2-.48-.77-.61-1.06A2.19,2.19,0,0,1,15,17,1.28,1.28,0,0,1,15.14,16.4Z"/><path class="cls-6" d="M15.67,15.27a5.57,5.57,0,0,0-.88-.31c-.55-.14-1.26-.21-1.55.15a2.31,2.31,0,0,0-.59,1.42c-.06.71,0,.69.11.87s.13.59-.31.59a1,1,0,0,1-.93-.51,3.39,3.39,0,0,1-.14-.59c0-.07-.05-.15-.13-.07s-.31.34-.53.34-.43-.31-.77-.31-.39.45-.39.71a3.34,3.34,0,0,1-.11,1.25.69.69,0,0,1-.74.38c-.41,0-.72-.05-.72-.33a2.64,2.64,0,0,0,0-.7,1.71,1.71,0,0,0-.21-.56s-.08-.13-.17-.12a.48.48,0,0,0-.29.19,1.66,1.66,0,0,0-.29.84c0,.24.19,1.4,1.27,1.4s1.38,0,1.49,0a1.58,1.58,0,0,1,.48.1,7.12,7.12,0,0,0,1.76.19,15.09,15.09,0,0,0,2.23-.09c.23-.06.19-.24.2-.4a1.22,1.22,0,0,0-.1-.69,7.58,7.58,0,0,1-.63-1.31,2.31,2.31,0,0,1,0-1.25,1.87,1.87,0,0,1,1.27-.8,2.84,2.84,0,0,0,.69-.2C15.74,15.41,15.81,15.36,15.67,15.27Zm-4.83,4.65a.56.56,0,1,1,.52-.56A.55.55,0,0,1,10.84,19.92Z"/><path class="cls-7" d="M17.84,34.16V29.39h-4.5v5.83h3.14C17.9,35.22,17.84,34.16,17.84,34.16Zm-.51-3.9h-.67s-.07,0-.07.09v2.27l-.09,0v2s-.11,0-.13-.09-.06,0-.09-.12,0-1.79,0-1.79-.23-.11-.23-.26.19-.27.19-.27l0-1.87h-.39l0,2.36a.37.37,0,0,1,.15.25.92.92,0,0,1-.19.39v.67s.15.11.14.18-.11.17-.13.18v.44s-.16,0-.2-.13a1.33,1.33,0,0,1-.1-.23,2.62,2.62,0,0,1,0-.49.26.26,0,0,1,.06-.18,1.35,1.35,0,0,0,0-.35.66.66,0,0,1-.19-.35.5.5,0,0,1,.2-.39V30.3h-.3l0,.65-.08.09,0,2.81s.15.12.15.22a.29.29,0,0,1-.14.21v.52s-.23,0-.24-.06,0-.35,0-.35-.22-.18-.22-.34.24-.25.25-.27V32.15s-.16,0-.16-.17.17-.2.17-.2v-1.5a.16.16,0,0,0-.14-.07c-.1,0-.36,0-.36.18a8.49,8.49,0,0,0,0,1.05.28.28,0,0,1,.09.19.37.37,0,0,1-.08.31l0,1a.37.37,0,0,1,.14.25.46.46,0,0,1-.15.28l0,.87a.21.21,0,0,1-.2.15c-.11,0-.1-.14-.1-.18V33.22s-.1,0-.1-.11.07-.13.13-.16l.06-1.18a.28.28,0,0,1-.08-.19.31.31,0,0,1,.12-.21V30.25s0-.08-.12-.08h-.38s-.05-.05,0-.1a.14.14,0,0,0,.07-.12s0-.07.11-.07h1a.27.27,0,0,1,.21.06s0,0,.09,0a.43.43,0,0,1,.25,0,2.11,2.11,0,0,0,.29.06,4.81,4.81,0,0,0,.5,0s0,0,.12-.07a1.48,1.48,0,0,1,.36,0c.08,0,.11.08.21.08h.41s0,0,.05.05a1.16,1.16,0,0,1,0,.19S17.38,30.25,17.33,30.26Z"/><path class="cls-8" d="M12.16,27.85H8.92l.18-2.32,0,2.22,1.12,0a3.15,3.15,0,0,0,.88-.21A.77.77,0,0,1,12.16,27.85Z"/><polygon class="cls-8" points="15.72 27.85 15.44 27.87 15.45 26.22 15.72 27.85"/><path class="cls-8" d="M12.52,27.86l1.43,0a1.85,1.85,0,0,0-.75-.3C12.91,27.54,12.58,27.69,12.52,27.86Z"/><path class="cls-8" d="M9.44,27.47h.78a3.94,3.94,0,0,0,.68-.19,1.55,1.55,0,0,1,.64-.14,1,1,0,0,1,.64.27l0-3.65a.94.94,0,0,0-.73-.34,2,2,0,0,0-.89.24,1.6,1.6,0,0,1-.55.1H9.39Z"/><path class="cls-8" d="M12.52,27.46a1.23,1.23,0,0,1,.65-.22,1.8,1.8,0,0,1,.84.29.73.73,0,0,0,.42.1h.71V23.9h-.48a1.22,1.22,0,0,1-.53-.14,1.64,1.64,0,0,0-.9-.3,1.21,1.21,0,0,0-.78.32Z"/><rect class="cls-9" x="8.87" y="33.72" width="0.47" height="0.31"/><rect class="cls-9" x="9.73" y="33.72" width="0.47" height="0.31"/><path class="cls-10" d="M12.27,33.66v1H12v-.44H7.71V34.1H8.6l.17-.67A1.77,1.77,0,0,1,8.26,33l-.45.23L7.71,33l.43-.21A1.65,1.65,0,0,1,7.91,32h-.5v-.18h.51a1.55,1.55,0,0,1,.18-.6L7.73,31l.18-.27.37.26a2,2,0,0,1,.58-.45l-.22-.31.24-.17.26.37a2.09,2.09,0,0,1,.51-.09v-.46h.19v.47a1.76,1.76,0,0,1,.61.14l.27-.4.18.12-.26.37a1.89,1.89,0,0,1,.56.49l.36-.28.2.25-.4.31a1.61,1.61,0,0,1,.15.62h.55v.18H11.5a1.47,1.47,0,0,1-.21.65l.43.29-.11.17L11.18,33a2,2,0,0,1-.42.39l.07.73H12v-.44Z"/><path class="cls-1" d="M11.08,31.15l-.25.12-.9.43.44-.83.13-.24a1.72,1.72,0,0,0-.82-.2,1.69,1.69,0,0,0-.95.28l.14.22.45.73-.8-.38-.25-.12A1.41,1.41,0,0,0,8,32a1.47,1.47,0,0,0,.25.82l.25-.13.85-.43L8.86,33l-.15.23a1.75,1.75,0,0,0,1,.28,1.69,1.69,0,0,0,.78-.18l-.12-.23-.47-.92,1,.51.25.13a1.43,1.43,0,0,0,0-1.66ZM8.38,32.4a1.21,1.21,0,0,1,0-.81l.81.37Zm1.68.79a1.2,1.2,0,0,1-.38.05,1.4,1.4,0,0,1-.54-.1l.5-.73Zm-.43-1.7-.47-.71a1.46,1.46,0,0,1,.52-.09,1.58,1.58,0,0,1,.38,0Zm1.35.88L10.13,32l.86-.39a1.29,1.29,0,0,1,.07.4A1.06,1.06,0,0,1,11,32.37Z"/><path class="cls-4" d="M10.06,33.19a1.2,1.2,0,0,1-.38.05,1.4,1.4,0,0,1-.54-.1l.5-.73Z"/><path class="cls-4" d="M10.06,30.74l-.43.75-.47-.71a1.46,1.46,0,0,1,.52-.09A1.58,1.58,0,0,1,10.06,30.74Z"/><path class="cls-4" d="M9.17,32l-.79.44a1.21,1.21,0,0,1,0-.81Z"/><path class="cls-4" d="M11.06,32a1.06,1.06,0,0,1-.08.4L10.13,32l.86-.39A1.29,1.29,0,0,1,11.06,32Z"/><path class="cls-1" d="M4.37,14.12,5,13.39,6.4,14.55a1.61,1.61,0,0,1,.34.4,1.1,1.1,0,0,1,.16.47,1,1,0,0,1-.05.46,1.86,1.86,0,0,1-.34.58,3.75,3.75,0,0,1-.34.36,1.23,1.23,0,0,1-.38.26,1.07,1.07,0,0,1-.41.09A1,1,0,0,1,5,17.1a2.15,2.15,0,0,1-.46-.26L3.1,15.67l.6-.73,1.46,1.19a.49.49,0,0,0,.75-.07A.48.48,0,0,0,6,15.68a.49.49,0,0,0-.21-.36Z"/><path class="cls-1" d="M6.89,12.25l.8-.34L9.39,13l-.65-1.54.81-.34,1.17,2.77-.81.35L8.23,13.15l.65,1.53L8.07,15Z"/><path class="cls-1" d="M11.48,11l1.37,0a1.76,1.76,0,0,1,.66.1,1.1,1.1,0,0,1,.42.31,1.28,1.28,0,0,1,.24.48,2.61,2.61,0,0,1,.09.57,2.15,2.15,0,0,1-.1.75,1.23,1.23,0,0,1-.3.44.93.93,0,0,1-.41.25,1.91,1.91,0,0,1-.55.09l-1.37,0Zm.94.66,0,1.63h.22a.84.84,0,0,0,.41-.07.46.46,0,0,0,.19-.22,1.63,1.63,0,0,0,.06-.52,1,1,0,0,0-.17-.65.63.63,0,0,0-.51-.17Z"/><path class="cls-1" d="M16.63,14.45l-1-.46-.35.4L14.43,14l2.34-2.3.94.44-.25,3.27-.9-.42Zm.1-.69.16-1.14-.77.86Z"/><path class="cls-1" d="M19.9,16.46l.22.83a1.4,1.4,0,0,1-.62.09,1.13,1.13,0,0,1-.54-.19,1.64,1.64,0,0,1-.45-.51,1.88,1.88,0,0,1-.31-.76,1.24,1.24,0,0,1,.14-.73A1.66,1.66,0,0,1,19,14.5a1.59,1.59,0,0,1,1.2-.27,1.53,1.53,0,0,1,.95.74,1.61,1.61,0,0,1,.28.89,1.36,1.36,0,0,1-.35.79l-.59-.6a.72.72,0,0,0,.12-.19.53.53,0,0,0,0-.25.59.59,0,0,0-.09-.24.54.54,0,0,0-.48-.28,1,1,0,0,0-.57.21c-.29.18-.46.34-.51.5a.55.55,0,0,0,.07.46.52.52,0,0,0,.35.26A.86.86,0,0,0,19.9,16.46Z"/><path class="cls-11" d="M30.65,16.71a.55.55,0,0,1,.05-.26.59.59,0,0,1,.13-.18.78.78,0,0,1,.2-.11.65.65,0,0,1,.45,0,.59.59,0,0,1,.19.11.49.49,0,0,1,.14.18.55.55,0,0,1,.06.26V20.4a1.66,1.66,0,0,0,.12.66,1.29,1.29,0,0,0,.8.74,1.64,1.64,0,0,0,1.07,0,1.37,1.37,0,0,0,.47-.27,1.25,1.25,0,0,0,.33-.47,1.65,1.65,0,0,0,.13-.66V16.71a.55.55,0,0,1,.05-.26.49.49,0,0,1,.14-.18.59.59,0,0,1,.19-.11.93.93,0,0,1,.23,0,.78.78,0,0,1,.22,0,.64.64,0,0,1,.2.11.62.62,0,0,1,.14.18.71.71,0,0,1,0,.26v3.72a2.46,2.46,0,0,1-.21,1.05,2.15,2.15,0,0,1-.58.74,2.26,2.26,0,0,1-.86.44,3.65,3.65,0,0,1-2.07,0,2.34,2.34,0,0,1-.86-.44,2,2,0,0,1-.57-.74,2.46,2.46,0,0,1-.21-1.05Z"/><path class="cls-11" d="M37.42,16.85a1,1,0,0,1,0-.31.91.91,0,0,1,.15-.23.66.66,0,0,1,.2-.14.7.7,0,0,1,.25-.05.76.76,0,0,1,.35.09,1.09,1.09,0,0,1,.31.27l3.18,4.58V16.64a.56.56,0,0,1,.05-.23.48.48,0,0,1,.12-.16.52.52,0,0,1,.37-.13.63.63,0,0,1,.19,0,.48.48,0,0,1,.17.1.51.51,0,0,1,.13.16.56.56,0,0,1,0,.23V22a.94.94,0,0,1,0,.3.76.76,0,0,1-.15.23.6.6,0,0,1-.21.14.74.74,0,0,1-.25.05.69.69,0,0,1-.34-.09.86.86,0,0,1-.32-.26L38.5,17.76v4.39a.56.56,0,0,1,0,.23.51.51,0,0,1-.13.16.48.48,0,0,1-.17.1.64.64,0,0,1-.2,0,.63.63,0,0,1-.19,0,.48.48,0,0,1-.17-.1.4.4,0,0,1-.12-.16.52.52,0,0,1,0-.23Z"/><path class="cls-11" d="M44.47,16.7a.55.55,0,0,1,.06-.26.59.59,0,0,1,.13-.18.56.56,0,0,1,.2-.11.57.57,0,0,1,.22,0,.62.62,0,0,1,.23,0,.52.52,0,0,1,.19.11.49.49,0,0,1,.14.18.55.55,0,0,1,0,.26v5.38a.51.51,0,0,1,0,.25.42.42,0,0,1-.14.18.49.49,0,0,1-.2.11.57.57,0,0,1-.22,0,.54.54,0,0,1-.22,0,.51.51,0,0,1-.33-.29.51.51,0,0,1-.06-.25Z"/><path class="cls-11" d="M49.53,21.72h0l1.72-5.18a.62.62,0,0,1,.21-.31.6.6,0,0,1,.34-.11.54.54,0,0,1,.21.05.46.46,0,0,1,.3.27.46.46,0,0,1,.05.2v.09s0,.05,0,.08l-1.79,5.07a1.84,1.84,0,0,1-.17.37.93.93,0,0,1-.23.25,1,1,0,0,1-.29.13,1.25,1.25,0,0,1-.35,0,1.22,1.22,0,0,1-.34,0,.6.6,0,0,1-.28-.13.88.88,0,0,1-.23-.24,2,2,0,0,1-.17-.38l-1.81-5a.55.55,0,0,1,0-.17.54.54,0,0,1,.05-.22.52.52,0,0,1,.13-.17.62.62,0,0,1,.19-.12.54.54,0,0,1,.22,0,.57.57,0,0,1,.33.11.55.55,0,0,1,.21.3Z"/><path class="cls-11" d="M54,22.67a.59.59,0,0,1-.23-.05.59.59,0,0,1-.19-.13.83.83,0,0,1-.13-.18.59.59,0,0,1-.05-.23V16.71a.54.54,0,0,1,.05-.22.47.47,0,0,1,.12-.19.46.46,0,0,1,.18-.13.59.59,0,0,1,.23-.05h3.32a.38.38,0,0,1,.19,0,.4.4,0,0,1,.15.1.64.64,0,0,1,.08.14.51.51,0,0,1,0,.17.41.41,0,0,1,0,.16.53.53,0,0,1-.08.15.4.4,0,0,1-.15.1.38.38,0,0,1-.19,0H54.56v1.85h2.53a.56.56,0,0,1,.2,0,.58.58,0,0,1,.15.11.64.64,0,0,1,.08.14.47.47,0,0,1,0,.17.45.45,0,0,1,0,.16.46.46,0,0,1-.09.15.5.5,0,0,1-.14.1.42.42,0,0,1-.2,0H54.56v2h2.81a.38.38,0,0,1,.19,0,.4.4,0,0,1,.15.1.64.64,0,0,1,.08.14.51.51,0,0,1,0,.17.45.45,0,0,1,0,.16.53.53,0,0,1-.08.15.56.56,0,0,1-.15.1.38.38,0,0,1-.19,0Z"/><path class="cls-11" d="M59,16.72a.64.64,0,0,1,0-.24.83.83,0,0,1,.13-.18.53.53,0,0,1,.2-.13.59.59,0,0,1,.23-.05h2a5.18,5.18,0,0,1,.89.07,2.46,2.46,0,0,1,.75.26,1.42,1.42,0,0,1,.72,1.34,1.49,1.49,0,0,1-.08.52,1.43,1.43,0,0,1-.25.43,1.49,1.49,0,0,1-.44.33,2.05,2.05,0,0,1-.62.2v0a1.94,1.94,0,0,1,.57.16,1.25,1.25,0,0,1,.36.28,1.17,1.17,0,0,1,.2.42,2.67,2.67,0,0,1,.11.55c0,.18,0,.35.05.51s0,.31,0,.43,0,.28,0,.41v.05a.48.48,0,0,1-.06.24.59.59,0,0,1-.13.18.69.69,0,0,1-.19.1.57.57,0,0,1-.22,0,.76.76,0,0,1-.21,0,.69.69,0,0,1-.19-.1.56.56,0,0,1-.14-.16.62.62,0,0,1-.07-.23c0-.33-.07-.61-.09-.86s0-.45-.07-.62a1.73,1.73,0,0,0-.12-.43.68.68,0,0,0-.2-.27,1,1,0,0,0-.33-.13,2.51,2.51,0,0,0-.51,0H60.24v2.29a.71.71,0,0,1-.05.26.49.49,0,0,1-.14.18.69.69,0,0,1-.19.1.57.57,0,0,1-.22,0,.54.54,0,0,1-.22,0,.63.63,0,0,1-.2-.1.59.59,0,0,1-.13-.18.55.55,0,0,1-.05-.26ZM61.22,19a5.59,5.59,0,0,0,.57,0,1.73,1.73,0,0,0,.52-.13.88.88,0,0,0,.52-.85.94.94,0,0,0-.13-.54.8.8,0,0,0-.33-.3,1.24,1.24,0,0,0-.44-.12l-.48,0H60.24v2Z"/><path class="cls-11" d="M66.25,17.76a.69.69,0,0,0,.15.46,1.24,1.24,0,0,0,.39.31,3.26,3.26,0,0,0,.56.23L68,19c.29.09.56.18.81.28a2.64,2.64,0,0,1,.64.38,1.57,1.57,0,0,1,.43.53,1.49,1.49,0,0,1,.16.73,1.71,1.71,0,0,1-.19.82,1.79,1.79,0,0,1-.52.61,2.44,2.44,0,0,1-.81.39,3.87,3.87,0,0,1-1,.13,4.25,4.25,0,0,1-.82-.07,4.7,4.7,0,0,1-.72-.2,2.71,2.71,0,0,1-.56-.31,1.52,1.52,0,0,1-.38-.38.41.41,0,0,1,0-.16.55.55,0,0,1,0-.17.78.78,0,0,1,.1-.15l.12-.12a.27.27,0,0,1,.14,0,.24.24,0,0,1,.16.05l.16.1.33.18a2.63,2.63,0,0,0,.42.17,3,3,0,0,0,1,.16,2.36,2.36,0,0,0,.54-.05,1.29,1.29,0,0,0,.43-.17.71.71,0,0,0,.29-.28.72.72,0,0,0,.11-.4.77.77,0,0,0-.15-.49,1.18,1.18,0,0,0-.4-.32,2.62,2.62,0,0,0-.56-.23l-.64-.2-.29-.1-.34-.13-.32-.15a1.11,1.11,0,0,1-.25-.14,1.44,1.44,0,0,1-.84-1.4,1.67,1.67,0,0,1,.19-.78,1.83,1.83,0,0,1,.52-.59,2.48,2.48,0,0,1,.79-.36,3.75,3.75,0,0,1,1-.13,3.52,3.52,0,0,1,1.25.21,2.48,2.48,0,0,1,1,.6.34.34,0,0,1,.08.14.4.4,0,0,1,0,.15.45.45,0,0,1,0,.16.39.39,0,0,1-.2.26.38.38,0,0,1-.19.05.48.48,0,0,1-.29-.14,2.45,2.45,0,0,0-.29-.18,1.94,1.94,0,0,0-.36-.15,1.85,1.85,0,0,0-.42-.11,2.24,2.24,0,0,0-.46-.05,2.44,2.44,0,0,0-.48.05,1.52,1.52,0,0,0-.44.15,1,1,0,0,0-.31.26A.65.65,0,0,0,66.25,17.76Z"/><path class="cls-11" d="M71.23,16.7a.55.55,0,0,1,0-.26.49.49,0,0,1,.14-.18.52.52,0,0,1,.19-.11.62.62,0,0,1,.23,0,.57.57,0,0,1,.22,0,.56.56,0,0,1,.2.11.86.86,0,0,1,.14.18.71.71,0,0,1,0,.26v5.38a.53.53,0,0,1-.19.43.56.56,0,0,1-.2.11.62.62,0,0,1-.23,0,.57.57,0,0,1-.22,0,.45.45,0,0,1-.19-.11.42.42,0,0,1-.14-.18.51.51,0,0,1,0-.25Z"/><path class="cls-11" d="M74.53,22.67a.59.59,0,0,1-.23-.05.67.67,0,0,1-.2-.12,1.27,1.27,0,0,1-.13-.19.59.59,0,0,1,0-.23V16.72a.64.64,0,0,1,0-.24.83.83,0,0,1,.13-.18.53.53,0,0,1,.2-.13.59.59,0,0,1,.23-.05h1.62a4.73,4.73,0,0,1,1.54.22,2.86,2.86,0,0,1,1.09.64,2.59,2.59,0,0,1,.65,1,4.33,4.33,0,0,1,.22,1.4,3.8,3.8,0,0,1-.24,1.4,2.63,2.63,0,0,1-.67,1,2.87,2.87,0,0,1-1.09.63,4.66,4.66,0,0,1-1.45.21Zm.61-.83h1a2.77,2.77,0,0,0,1-.17,1.75,1.75,0,0,0,.68-.48,2.06,2.06,0,0,0,.38-.77,4,4,0,0,0,.12-1,3.5,3.5,0,0,0-.15-1.09,2,2,0,0,0-.46-.76A1.92,1.92,0,0,0,77,17.1,3.47,3.47,0,0,0,76,17h-.86Z"/><path class="cls-11" d="M85.92,22a.63.63,0,0,1,0,.19.43.43,0,0,1-.06.22.51.51,0,0,1-.13.16.78.78,0,0,1-.2.11.83.83,0,0,1-.22,0,.59.59,0,0,1-.32-.09.48.48,0,0,1-.2-.29l-.47-1.22H81.43L81,22.28a.48.48,0,0,1-.2.29.56.56,0,0,1-.31.09.76.76,0,0,1-.21,0,.64.64,0,0,1-.2-.11.51.51,0,0,1-.13-.16.39.39,0,0,1-.06-.21s0-.07,0-.1a.54.54,0,0,1,0-.1l1.91-4.78a3.78,3.78,0,0,1,.23-.52,1.77,1.77,0,0,1,.24-.32.69.69,0,0,1,.29-.16,1.16,1.16,0,0,1,.34-.05,1.21,1.21,0,0,1,.34.05.72.72,0,0,1,.29.17,1.48,1.48,0,0,1,.24.32,2.77,2.77,0,0,1,.22.51Zm-3-4.89-1.2,3.24H84.1l-1.2-3.24Z"/><path class="cls-11" d="M87.46,22.67a.69.69,0,0,1-.24-.05A.62.62,0,0,1,87,22.5a.59.59,0,0,1-.13-.19.59.59,0,0,1-.05-.23V16.72a.64.64,0,0,1,.05-.24A.46.46,0,0,1,87,16.3a.5.5,0,0,1,.19-.13.69.69,0,0,1,.24-.05h1.62a4.77,4.77,0,0,1,1.54.22,2.86,2.86,0,0,1,1.09.64,2.71,2.71,0,0,1,.65,1,4.34,4.34,0,0,1,.21,1.4,4,4,0,0,1-.23,1.4,2.65,2.65,0,0,1-.68,1,2.76,2.76,0,0,1-1.08.63,4.72,4.72,0,0,1-1.46.21Zm.6-.83h1a2.73,2.73,0,0,0,1-.17,1.62,1.62,0,0,0,.68-.48,1.93,1.93,0,0,0,.39-.77,4,4,0,0,0,.12-1,3.21,3.21,0,0,0-.16-1.09,1.85,1.85,0,0,0-.45-.76,1.88,1.88,0,0,0-.75-.45,3.42,3.42,0,0,0-1-.14h-.86Z"/><path class="cls-11" d="M96.42,16.85a.75.75,0,0,1,0-.31.68.68,0,0,1,.14-.23.6.6,0,0,1,.21-.14.7.7,0,0,1,.25-.05.72.72,0,0,1,.34.09,1,1,0,0,1,.31.27l3.19,4.58V16.64a.56.56,0,0,1,0-.23.48.48,0,0,1,.12-.16.77.77,0,0,1,.18-.1.63.63,0,0,1,.19,0,.64.64,0,0,1,.2,0,.59.59,0,0,1,.17.1.48.48,0,0,1,.12.16.56.56,0,0,1,0,.23V22a.73.73,0,0,1-.06.3.59.59,0,0,1-.14.23.64.64,0,0,1-.22.14.7.7,0,0,1-.25.05.75.75,0,0,1-.34-.09.83.83,0,0,1-.31-.26l-3.17-4.56v4.39a.56.56,0,0,1,0,.23.48.48,0,0,1-.12.16.59.59,0,0,1-.17.1.68.68,0,0,1-.4,0,.59.59,0,0,1-.17-.1.4.4,0,0,1-.12-.16.53.53,0,0,1,0-.23Z"/><path class="cls-11" d="M108.91,22a.63.63,0,0,1,0,.19.42.42,0,0,1,0,.22.43.43,0,0,1-.14.16.72.72,0,0,1-.19.11.91.91,0,0,1-.23,0,.56.56,0,0,1-.31-.09.44.44,0,0,1-.2-.29l-.48-1.22h-2.92L104,22.28a.52.52,0,0,1-.2.29.59.59,0,0,1-.31.09.83.83,0,0,1-.22,0,.59.59,0,0,1-.19-.11.54.54,0,0,1-.14-.16.5.5,0,0,1-.05-.21.34.34,0,0,1,0-.1.22.22,0,0,1,0-.1l1.91-4.78a2.87,2.87,0,0,1,.23-.52,1.16,1.16,0,0,1,.24-.32.72.72,0,0,1,.28-.16,1.21,1.21,0,0,1,.34-.05,1.29,1.29,0,0,1,.35.05.68.68,0,0,1,.28.17,1.23,1.23,0,0,1,.25.32,3.69,3.69,0,0,1,.22.51Zm-3-4.89-1.2,3.24h2.41l-1.19-3.24Z"/><path class="cls-11" d="M109.22,19.43a4.35,4.35,0,0,1,.23-1.44,3.34,3.34,0,0,1,.64-1.09,2.82,2.82,0,0,1,1-.69A3.07,3.07,0,0,1,112.3,16a4.27,4.27,0,0,1,.85.1,5.69,5.69,0,0,1,.91.3.46.46,0,0,1,.22.19.44.44,0,0,1,.07.24.51.51,0,0,1,0,.17.6.6,0,0,1-.09.15.45.45,0,0,1-.13.1.34.34,0,0,1-.18,0,.39.39,0,0,1-.18,0,4.09,4.09,0,0,0-1.31-.26,2,2,0,0,0-.83.17,1.5,1.5,0,0,0-.61.47,2.22,2.22,0,0,0-.38.77,4,4,0,0,0-.13,1,3.76,3.76,0,0,0,.12,1,2,2,0,0,0,.34.76,1.59,1.59,0,0,0,.57.49,1.73,1.73,0,0,0,.81.18,3,3,0,0,0,.7-.09,4,4,0,0,0,.81-.29l.11,0,.11,0a.47.47,0,0,1,.17,0l.13.1a.38.38,0,0,1,.09.15.88.88,0,0,1,0,.17.52.52,0,0,1-.08.28.63.63,0,0,1-.27.23,4.52,4.52,0,0,1-1.88.47,2.9,2.9,0,0,1-1.22-.25,2.62,2.62,0,0,1-1-.69,3.23,3.23,0,0,1-.62-1.07A4.34,4.34,0,0,1,109.22,19.43Z"/><path class="cls-11" d="M116,16.7a.71.71,0,0,1,0-.26.62.62,0,0,1,.14-.18.49.49,0,0,1,.2-.11.62.62,0,0,1,.44,0,.49.49,0,0,1,.2.11.62.62,0,0,1,.14.18.71.71,0,0,1,0,.26v5.38a.66.66,0,0,1,0,.25.51.51,0,0,1-.14.18.56.56,0,0,1-.2.11.59.59,0,0,1-.23,0,.57.57,0,0,1-.22,0,.45.45,0,0,1-.19-.11.51.51,0,0,1-.14-.18.66.66,0,0,1,0-.25Z"/><path class="cls-11" d="M118.45,19.4a4.73,4.73,0,0,1,.2-1.4,3,3,0,0,1,.61-1.08,2.7,2.7,0,0,1,1-.7A3.62,3.62,0,0,1,121.6,16a3.53,3.53,0,0,1,1.35.25,2.74,2.74,0,0,1,1,.7,2.85,2.85,0,0,1,.6,1.08,4.43,4.43,0,0,1,.2,1.4,4.36,4.36,0,0,1-.2,1.39,2.85,2.85,0,0,1-.6,1.08,2.62,2.62,0,0,1-1,.7,3.35,3.35,0,0,1-1.35.25,3.44,3.44,0,0,1-1.36-.25,2.59,2.59,0,0,1-1-.7,3,3,0,0,1-.61-1.08A4.67,4.67,0,0,1,118.45,19.4Zm1.29,0a4.06,4.06,0,0,0,.11,1,2.27,2.27,0,0,0,.33.79,1.63,1.63,0,0,0,.58.53,1.8,1.8,0,0,0,.84.19,1.86,1.86,0,0,0,.84-.19,1.61,1.61,0,0,0,.57-.53,2.1,2.1,0,0,0,.34-.79,4.69,4.69,0,0,0,0-2,2.35,2.35,0,0,0-.33-.79,1.55,1.55,0,0,0-.58-.53,1.74,1.74,0,0,0-.84-.19,1.68,1.68,0,0,0-.84.19,1.48,1.48,0,0,0-.58.53,2.35,2.35,0,0,0-.33.79A4.06,4.06,0,0,0,119.74,19.4Z"/><path class="cls-11" d="M125.9,16.85a1,1,0,0,1,0-.31.88.88,0,0,1,.14-.23.65.65,0,0,1,.46-.19.69.69,0,0,1,.34.09,1,1,0,0,1,.32.27l3.18,4.58V16.64a.56.56,0,0,1,0-.23.57.57,0,0,1,.3-.26.64.64,0,0,1,.2,0,.63.63,0,0,1,.19,0,.51.51,0,0,1,.29.26.56.56,0,0,1,.05.23V22a.73.73,0,0,1-.06.3.6.6,0,0,1-.35.37.75.75,0,0,1-.26.05.68.68,0,0,1-.33-.09.86.86,0,0,1-.32-.26L127,17.76v4.39a.56.56,0,0,1,0,.23.7.7,0,0,1-.13.16.59.59,0,0,1-.17.1.69.69,0,0,1-.2,0,.58.58,0,0,1-.19,0,.52.52,0,0,1-.18-.1.4.4,0,0,1-.12-.16.53.53,0,0,1,0-.23Z"/><path class="cls-11" d="M138.39,22a.65.65,0,0,1,0,.19.49.49,0,0,1-.2.38.59.59,0,0,1-.19.11.83.83,0,0,1-.22,0,.59.59,0,0,1-.32-.09.44.44,0,0,1-.2-.29l-.47-1.22h-2.92l-.47,1.22a.48.48,0,0,1-.2.29.59.59,0,0,1-.31.09l-.22,0a.72.72,0,0,1-.19-.11.54.54,0,0,1-.14-.16.5.5,0,0,1,0-.21.34.34,0,0,1,0-.1.22.22,0,0,1,0-.1l1.91-4.78a3.78,3.78,0,0,1,.23-.52,1.4,1.4,0,0,1,.24-.32.72.72,0,0,1,.28-.16,1.27,1.27,0,0,1,.34-.05,1.23,1.23,0,0,1,.35.05.68.68,0,0,1,.28.17,1.23,1.23,0,0,1,.25.32,3.69,3.69,0,0,1,.22.51Zm-3-4.89-1.2,3.24h2.42l-1.2-3.24Z"/><path class="cls-11" d="M140,22.67a.69.69,0,0,1-.24-.05.5.5,0,0,1-.19-.13.67.67,0,0,1-.14-.19.6.6,0,0,1-.05-.24V16.72a.53.53,0,0,1,.06-.26.53.53,0,0,1,.13-.19.75.75,0,0,1,.2-.1.59.59,0,0,1,.23,0,.57.57,0,0,1,.22,0,.75.75,0,0,1,.2.1.72.72,0,0,1,.14.19.67.67,0,0,1,.05.26v5h2.63a.42.42,0,0,1,.2,0,.39.39,0,0,1,.14.1.6.6,0,0,1,.09.15.5.5,0,0,1,0,.34.6.6,0,0,1-.09.15.39.39,0,0,1-.14.1.42.42,0,0,1-.2,0Z"/><path class="cls-11" d="M31.22,33.86a.67.67,0,0,1-.24,0,.62.62,0,0,1-.32-.32.59.59,0,0,1-.05-.23V27.91a.59.59,0,0,1,.05-.23.53.53,0,0,1,.13-.19.8.8,0,0,1,.19-.13.69.69,0,0,1,.24-.05h1.62a5.06,5.06,0,0,1,1.54.22,2.76,2.76,0,0,1,1.09.65,2.56,2.56,0,0,1,.65,1,4.34,4.34,0,0,1,.21,1.4A3.81,3.81,0,0,1,36.1,32a2.77,2.77,0,0,1-.68,1,2.86,2.86,0,0,1-1.08.62,4.66,4.66,0,0,1-1.45.21Zm.61-.83h1a2.7,2.7,0,0,0,1-.17,1.62,1.62,0,0,0,.68-.48,1.89,1.89,0,0,0,.39-.76,4,4,0,0,0,.12-1,3.25,3.25,0,0,0-.16-1.09,1.85,1.85,0,0,0-.45-.76,1.92,1.92,0,0,0-.74-.45,3.47,3.47,0,0,0-1-.14h-.86Z"/><path class="cls-11" d="M42.6,33.15a.58.58,0,0,1,0,.18.43.43,0,0,1-.06.22.46.46,0,0,1-.14.17.57.57,0,0,1-.19.1.59.59,0,0,1-.23,0,.52.52,0,0,1-.31-.1.44.44,0,0,1-.2-.29L41,32.25H38.12l-.47,1.22a.48.48,0,0,1-.2.3.59.59,0,0,1-.31.09.6.6,0,0,1-.22,0,.69.69,0,0,1-.19-.1.58.58,0,0,1-.14-.17.46.46,0,0,1-.05-.21.28.28,0,0,1,0-.09.17.17,0,0,1,0-.1l1.91-4.79a3.78,3.78,0,0,1,.23-.52,1.4,1.4,0,0,1,.24-.32.88.88,0,0,1,.28-.16,1.27,1.27,0,0,1,.34,0,1,1,0,0,1,.35.05.66.66,0,0,1,.28.16,1.42,1.42,0,0,1,.25.32,4.31,4.31,0,0,1,.22.51Zm-3-4.9-1.2,3.24h2.42l-1.2-3.24Z"/><path class="cls-11" d="M43.55,28a1,1,0,0,1,.05-.31.69.69,0,0,1,.14-.22.49.49,0,0,1,.21-.14.53.53,0,0,1,.25-.05.84.84,0,0,1,.34.08,1,1,0,0,1,.32.27L48,32.25V27.83a.51.51,0,0,1,0-.22.52.52,0,0,1,.12-.17.61.61,0,0,1,.18-.09.45.45,0,0,1,.2,0,.63.63,0,0,1,.19,0,.69.69,0,0,1,.17.1.52.52,0,0,1,.12.17.51.51,0,0,1,0,.22v5.31a.78.78,0,0,1-.06.31.64.64,0,0,1-.14.22.6.6,0,0,1-.21.14.58.58,0,0,1-.26,0,.88.88,0,0,1-.34-.08,1.09,1.09,0,0,1-.31-.27L44.62,29v4.4a.51.51,0,0,1,0,.22.7.7,0,0,1-.13.16.42.42,0,0,1-.17.1.69.69,0,0,1-.2,0,.58.58,0,0,1-.19,0,.49.49,0,0,1-.3-.26.48.48,0,0,1,0-.22Z"/><path class="cls-11" d="M50.6,27.89a.71.71,0,0,1,0-.26.62.62,0,0,1,.14-.18.49.49,0,0,1,.2-.11.62.62,0,0,1,.44,0,.49.49,0,0,1,.2.11.62.62,0,0,1,.14.18.71.71,0,0,1,0,.26v5.38a.62.62,0,0,1,0,.25.55.55,0,0,1-.14.19.64.64,0,0,1-.2.11.83.83,0,0,1-.22,0,.91.91,0,0,1-.23,0,.72.72,0,0,1-.19-.11.55.55,0,0,1-.14-.19.62.62,0,0,1,0-.25Z"/><path class="cls-11" d="M54,33.86a.42.42,0,0,1-.22,0,.62.62,0,0,1-.19-.12.59.59,0,0,1-.13-.19.46.46,0,0,1,0-.23V27.9a.54.54,0,0,1,0-.22.62.62,0,0,1,.12-.19.8.8,0,0,1,.19-.13.54.54,0,0,1,.22-.05h3.32a.59.59,0,0,1,.2,0,.71.71,0,0,1,.14.1.31.31,0,0,1,.08.15.45.45,0,0,1,0,.16.51.51,0,0,1,0,.17.29.29,0,0,1-.08.14.49.49,0,0,1-.14.11.6.6,0,0,1-.2,0h-2.7v1.85H57.1a.45.45,0,0,1,.2,0,.36.36,0,0,1,.14.1.42.42,0,0,1,.09.14,1,1,0,0,1,0,.17.45.45,0,0,1,0,.16.53.53,0,0,1-.08.15.45.45,0,0,1-.34.14H54.57v2h2.8a.42.42,0,0,1,.2,0,.36.36,0,0,1,.14.1.28.28,0,0,1,.08.15.44.44,0,0,1,0,.32.28.28,0,0,1-.08.15.36.36,0,0,1-.14.1.42.42,0,0,1-.2,0Z"/><path class="cls-11" d="M59.64,33.86a.61.61,0,0,1-.43-.18.55.55,0,0,1-.14-.19.59.59,0,0,1,0-.23V27.91a.71.71,0,0,1,0-.26.86.86,0,0,1,.14-.18.56.56,0,0,1,.2-.11.59.59,0,0,1,.23,0,.57.57,0,0,1,.22,0,.56.56,0,0,1,.2.11.59.59,0,0,1,.13.18.55.55,0,0,1,.06.26v5h2.63a.59.59,0,0,1,.2,0,.4.4,0,0,1,.14.11.42.42,0,0,1,.09.14.51.51,0,0,1,0,.17.47.47,0,0,1,0,.17.46.46,0,0,1-.09.15.3.3,0,0,1-.14.1.42.42,0,0,1-.2,0Z"/><path class="cls-11" d="M72.19,33.15a.58.58,0,0,1,0,.18.43.43,0,0,1-.06.22.46.46,0,0,1-.14.17.57.57,0,0,1-.19.1.59.59,0,0,1-.23,0,.52.52,0,0,1-.31-.1.44.44,0,0,1-.2-.29l-.47-1.22H67.71l-.47,1.22a.48.48,0,0,1-.2.3.59.59,0,0,1-.31.09.6.6,0,0,1-.22,0,.69.69,0,0,1-.19-.1.58.58,0,0,1-.14-.17.46.46,0,0,1-.05-.21.28.28,0,0,1,0-.09.17.17,0,0,1,0-.1l1.91-4.79a3.78,3.78,0,0,1,.23-.52,1.4,1.4,0,0,1,.24-.32.88.88,0,0,1,.28-.16,1.27,1.27,0,0,1,.34,0,1,1,0,0,1,.35.05.66.66,0,0,1,.28.16,1.42,1.42,0,0,1,.25.32,4.31,4.31,0,0,1,.22.51Zm-3-4.9L68,31.49h2.42l-1.2-3.24Z"/><path class="cls-11" d="M73.81,33.86a.52.52,0,0,1-.24,0,.5.5,0,0,1-.19-.13.55.55,0,0,1-.14-.19.59.59,0,0,1,0-.23V27.91a.55.55,0,0,1,.06-.26.59.59,0,0,1,.13-.18.56.56,0,0,1,.2-.11.59.59,0,0,1,.23,0,.57.57,0,0,1,.22,0,.56.56,0,0,1,.2.11.86.86,0,0,1,.14.18.71.71,0,0,1,0,.26v5h2.63a.59.59,0,0,1,.2,0,.4.4,0,0,1,.14.11.42.42,0,0,1,.09.14.51.51,0,0,1,0,.17.47.47,0,0,1,0,.17.46.46,0,0,1-.09.15.3.3,0,0,1-.14.1.42.42,0,0,1-.2,0Z"/><path class="cls-11" d="M78.11,30.62a4.35,4.35,0,0,1,.23-1.44A3.27,3.27,0,0,1,79,28.09a2.75,2.75,0,0,1,1-.68,3.14,3.14,0,0,1,1.23-.24,4.26,4.26,0,0,1,.86.09,5.16,5.16,0,0,1,.91.31.44.44,0,0,1,.22.18.55.55,0,0,1,.07.24.47.47,0,0,1,0,.17.6.6,0,0,1-.09.15.36.36,0,0,1-.14.1.34.34,0,0,1-.18,0l-.18,0a3.79,3.79,0,0,0-1.3-.26,2,2,0,0,0-.84.16,1.67,1.67,0,0,0-.61.48,2.08,2.08,0,0,0-.37.76,3.65,3.65,0,0,0-.13,1,4.17,4.17,0,0,0,.11,1,2.31,2.31,0,0,0,.34.76,1.6,1.6,0,0,0,.58.49,1.73,1.73,0,0,0,.81.18,3,3,0,0,0,.69-.09,4.61,4.61,0,0,0,.81-.28l.12,0h.11a.47.47,0,0,1,.17,0l.13.1a1.09,1.09,0,0,1,.08.15.47.47,0,0,1,0,.17.6.6,0,0,1-.08.28.69.69,0,0,1-.27.23,4.56,4.56,0,0,1-1.88.47,3.1,3.1,0,0,1-1.23-.24,2.86,2.86,0,0,1-1-.7A3.12,3.12,0,0,1,78.33,32,4.08,4.08,0,0,1,78.11,30.62Z"/><path class="cls-11" d="M84.87,27.89a.55.55,0,0,1,0-.26.49.49,0,0,1,.14-.18.45.45,0,0,1,.19-.11.93.93,0,0,1,.23,0,.85.85,0,0,1,.22,0,.56.56,0,0,1,.2.11.59.59,0,0,1,.13.18.55.55,0,0,1,.06.26v5.38a.49.49,0,0,1-.06.25.53.53,0,0,1-.13.19.78.78,0,0,1-.2.11.91.91,0,0,1-.23,0,.83.83,0,0,1-.22,0,.78.78,0,0,1-.2-.11.53.53,0,0,1-.13-.19.49.49,0,0,1,0-.25Z"/><path class="cls-11" d="M88.17,33.86a.59.59,0,0,1-.23,0,.69.69,0,0,1-.2-.13.8.8,0,0,1-.13-.19.59.59,0,0,1,0-.23V27.91a.59.59,0,0,1,0-.23.53.53,0,0,1,.13-.19.69.69,0,0,1,.2-.13.59.59,0,0,1,.23-.05h1.62a5.06,5.06,0,0,1,1.54.22,2.76,2.76,0,0,1,1.09.65,2.56,2.56,0,0,1,.65,1,4.34,4.34,0,0,1,.21,1.4,3.81,3.81,0,0,1-.23,1.4,2.77,2.77,0,0,1-.68,1,2.86,2.86,0,0,1-1.08.62,4.66,4.66,0,0,1-1.45.21Zm.61-.83h1a2.7,2.7,0,0,0,1-.17,1.62,1.62,0,0,0,.68-.48,1.89,1.89,0,0,0,.39-.76,4,4,0,0,0,.12-1,3.54,3.54,0,0,0-.15-1.09,2,2,0,0,0-.46-.76,1.92,1.92,0,0,0-.74-.45,3.47,3.47,0,0,0-1-.14h-.86Z"/><path class="cls-11" d="M95.09,33.86a.46.46,0,0,1-.23,0,.76.76,0,0,1-.19-.12.8.8,0,0,1-.13-.19.59.59,0,0,1-.05-.23V27.9a.54.54,0,0,1,0-.22.5.5,0,0,1,.13-.19.56.56,0,0,1,.41-.18h3.31a.54.54,0,0,1,.2,0,.5.5,0,0,1,.14.1.46.46,0,0,1,.09.15.88.88,0,0,1,0,.16,1,1,0,0,1,0,.17.42.42,0,0,1-.09.14.38.38,0,0,1-.14.11.56.56,0,0,1-.2,0h-2.7v1.85h2.53a.42.42,0,0,1,.2,0,.3.3,0,0,1,.14.1.42.42,0,0,1,.09.14.51.51,0,0,1,0,.17.45.45,0,0,1,0,.16.38.38,0,0,1-.09.15.45.45,0,0,1-.14.1.42.42,0,0,1-.2,0H95.68v2h2.8a.4.4,0,0,1,.2,0,.36.36,0,0,1,.14.1.38.38,0,0,1,.09.15.65.65,0,0,1,0,.32.38.38,0,0,1-.09.15.36.36,0,0,1-.14.1.4.4,0,0,1-.2,0Z"/><path class="cls-11" d="M101.11,29a.68.68,0,0,0,.15.45,1.16,1.16,0,0,0,.4.31,2.62,2.62,0,0,0,.56.23l.66.2a8.32,8.32,0,0,1,.8.29,2.7,2.7,0,0,1,.65.37,1.82,1.82,0,0,1,.43.53,1.64,1.64,0,0,1,.16.73,1.8,1.8,0,0,1-.19.82,1.7,1.7,0,0,1-.52.61,2.54,2.54,0,0,1-.81.39,3.89,3.89,0,0,1-1.06.14,4.3,4.3,0,0,1-.82-.08,3.49,3.49,0,0,1-.71-.2,3.26,3.26,0,0,1-.56-.3,1.55,1.55,0,0,1-.38-.39.42.42,0,0,1,0-.15.47.47,0,0,1,0-.17.83.83,0,0,1,.09-.16.49.49,0,0,1,.13-.12.25.25,0,0,1,.14,0,.27.27,0,0,1,.16,0l.15.1a3.45,3.45,0,0,0,.34.19,2.5,2.5,0,0,0,.41.16,3.51,3.51,0,0,0,.49.12,3.31,3.31,0,0,0,.55.05,2.38,2.38,0,0,0,.55-.06,1.37,1.37,0,0,0,.43-.16,1,1,0,0,0,.29-.28.77.77,0,0,0,.11-.4.81.81,0,0,0-.16-.5,1.39,1.39,0,0,0-.39-.32,2.85,2.85,0,0,0-.56-.23l-.64-.2-.3-.1-.33-.13a2.52,2.52,0,0,1-.33-.14l-.25-.15a1.44,1.44,0,0,1-.83-1.4,1.55,1.55,0,0,1,.19-.78,1.8,1.8,0,0,1,.52-.58,2.56,2.56,0,0,1,.78-.37,3.81,3.81,0,0,1,1-.12,3.55,3.55,0,0,1,1.26.2,2.58,2.58,0,0,1,.95.61.46.46,0,0,1,.08.13.61.61,0,0,1,0,.31.52.52,0,0,1-.07.15.49.49,0,0,1-.13.12.59.59,0,0,1-.2,0,.46.46,0,0,1-.28-.14l-.29-.17a3,3,0,0,0-.36-.16,2.58,2.58,0,0,0-.42-.11,2.35,2.35,0,0,0-.47,0,2.59,2.59,0,0,0-.48,0,1.81,1.81,0,0,0-.43.15.94.94,0,0,0-.32.27A.65.65,0,0,0,101.11,29Z"/><path class="cls-11" d="M108.43,30.62a4.11,4.11,0,0,1,.23-1.44,3.11,3.11,0,0,1,.64-1.09,2.75,2.75,0,0,1,1-.68,3.14,3.14,0,0,1,1.23-.24,4.34,4.34,0,0,1,.86.09,5.16,5.16,0,0,1,.91.31.44.44,0,0,1,.22.18.55.55,0,0,1,.07.24.47.47,0,0,1,0,.17.6.6,0,0,1-.09.15.36.36,0,0,1-.14.1.34.34,0,0,1-.18,0l-.18,0a3.79,3.79,0,0,0-1.3-.26,2,2,0,0,0-.84.16,1.59,1.59,0,0,0-.61.48,2.08,2.08,0,0,0-.37.76,3.65,3.65,0,0,0-.13,1,4.17,4.17,0,0,0,.11,1,2.31,2.31,0,0,0,.34.76,1.6,1.6,0,0,0,.58.49,1.73,1.73,0,0,0,.81.18,3,3,0,0,0,.69-.09,4.61,4.61,0,0,0,.81-.28l.12,0h.11a.47.47,0,0,1,.17,0l.13.1a1.09,1.09,0,0,1,.08.15.47.47,0,0,1,0,.17.6.6,0,0,1-.08.28.66.66,0,0,1-.28.23,4.48,4.48,0,0,1-1.87.47,3.07,3.07,0,0,1-1.23-.24,2.86,2.86,0,0,1-.95-.7,3.12,3.12,0,0,1-.61-1.07A4.08,4.08,0,0,1,108.43,30.62Z"/><path class="cls-11" d="M120.63,33.15a.57.57,0,0,1,0,.18.54.54,0,0,1,0,.22.58.58,0,0,1-.14.17.75.75,0,0,1-.2.1.57.57,0,0,1-.22,0,.55.55,0,0,1-.32-.1.48.48,0,0,1-.2-.29l-.47-1.22h-2.92l-.47,1.22a.44.44,0,0,1-.2.3.53.53,0,0,1-.3.09.54.54,0,0,1-.22,0,.63.63,0,0,1-.2-.1.55.55,0,0,1-.13-.17.36.36,0,0,1-.05-.21v-.09l0-.1,1.91-4.79a5.58,5.58,0,0,1,.23-.52,1.42,1.42,0,0,1,.25-.32.78.78,0,0,1,.28-.16,1.18,1.18,0,0,1,.34,0,.93.93,0,0,1,.34.05.69.69,0,0,1,.29.16,1.4,1.4,0,0,1,.24.32,4.21,4.21,0,0,1,.23.51Zm-3-4.9-1.2,3.24h2.42l-1.2-3.24Z"/><path class="cls-11" d="M121.65,27.91a.59.59,0,0,1,0-.23.53.53,0,0,1,.13-.19.69.69,0,0,1,.2-.13.59.59,0,0,1,.23-.05h2a5.17,5.17,0,0,1,.89.08,2,2,0,0,1,.75.26,1.44,1.44,0,0,1,.53.51,1.58,1.58,0,0,1,.19.82,1.46,1.46,0,0,1-.08.52,1.27,1.27,0,0,1-.26.43,1.33,1.33,0,0,1-.43.33,2.05,2.05,0,0,1-.62.2v0a2.1,2.1,0,0,1,.56.16,1.06,1.06,0,0,1,.37.29,1,1,0,0,1,.2.41,3.82,3.82,0,0,1,.11.55c0,.18,0,.35,0,.52s0,.3,0,.43,0,.28,0,.4v0a.48.48,0,0,1-.06.24.59.59,0,0,1-.13.18.72.72,0,0,1-.19.11l-.22,0a.76.76,0,0,1-.21,0,.66.66,0,0,1-.19-.09.79.79,0,0,1-.14-.17.56.56,0,0,1-.07-.23c0-.33-.07-.61-.09-.85s0-.45-.07-.63a1.87,1.87,0,0,0-.12-.43.59.59,0,0,0-.2-.26.82.82,0,0,0-.33-.14,3.52,3.52,0,0,0-.51,0h-1.26v2.29a.67.67,0,0,1,0,.26.62.62,0,0,1-.14.18.72.72,0,0,1-.19.11.83.83,0,0,1-.22,0,.78.78,0,0,1-.22,0,.64.64,0,0,1-.2-.11.59.59,0,0,1-.13-.18.53.53,0,0,1,0-.26Zm2.18,2.24.57,0a1.73,1.73,0,0,0,.52-.14.85.85,0,0,0,.52-.85.94.94,0,0,0-.13-.54.72.72,0,0,0-.33-.29,1.25,1.25,0,0,0-.44-.13l-.48,0h-1.21v2Z"/><path class="cls-11" d="M128,27.91a.46.46,0,0,1,.05-.23.43.43,0,0,1,.13-.19.53.53,0,0,1,.19-.13.59.59,0,0,1,.23-.05h2.05a5.08,5.08,0,0,1,.89.08,2,2,0,0,1,.75.26,1.37,1.37,0,0,1,.53.51,1.58,1.58,0,0,1,.2.82,1.46,1.46,0,0,1-.09.52,1.24,1.24,0,0,1-.25.43,1.49,1.49,0,0,1-.44.33,2.05,2.05,0,0,1-.62.2v0a2.31,2.31,0,0,1,.57.16.94.94,0,0,1,.36.29,1.22,1.22,0,0,1,.21.41,3.88,3.88,0,0,1,.1.55l.06.52c0,.16,0,.3,0,.43s0,.28,0,.4v0a.6.6,0,0,1-.05.24.62.62,0,0,1-.14.18.72.72,0,0,1-.19.11.83.83,0,0,1-.22,0,.76.76,0,0,1-.21,0,.66.66,0,0,1-.19-.09.79.79,0,0,1-.14-.17.78.78,0,0,1-.07-.23c0-.33-.06-.61-.08-.85s0-.45-.08-.63a1.87,1.87,0,0,0-.12-.43.52.52,0,0,0-.2-.26A.77.77,0,0,0,131,31a3.37,3.37,0,0,0-.5,0h-1.27v2.29a.53.53,0,0,1,0,.26.49.49,0,0,1-.14.18.59.59,0,0,1-.19.11.83.83,0,0,1-.22,0,.78.78,0,0,1-.22,0,.59.59,0,0,1-.19-.11.62.62,0,0,1-.14-.18.67.67,0,0,1-.05-.26Zm2.18,2.24.57,0a1.73,1.73,0,0,0,.52-.14,1,1,0,0,0,.38-.3,1,1,0,0,0,.14-.55.94.94,0,0,0-.13-.54.74.74,0,0,0-.32-.29,1.37,1.37,0,0,0-.45-.13,3.87,3.87,0,0,0-.48,0h-1.21v2Z"/><path class="cls-11" d="M134.44,27.89a.71.71,0,0,1,.05-.26.62.62,0,0,1,.14-.18.49.49,0,0,1,.2-.11.78.78,0,0,1,.22,0,.85.85,0,0,1,.22,0,.56.56,0,0,1,.2.11.62.62,0,0,1,.14.18.71.71,0,0,1,0,.26v5.38a.62.62,0,0,1,0,.25.55.55,0,0,1-.14.19.78.78,0,0,1-.2.11.91.91,0,0,1-.23,0,.83.83,0,0,1-.22,0,.59.59,0,0,1-.19-.11.55.55,0,0,1-.14-.19.62.62,0,0,1-.05-.25Z"/><path class="cls-11" d="M136.91,30.59a4.67,4.67,0,0,1,.2-1.39,3.14,3.14,0,0,1,.61-1.09,2.56,2.56,0,0,1,1-.69,3.44,3.44,0,0,1,1.36-.25,3.35,3.35,0,0,1,1.35.25,2.68,2.68,0,0,1,1,.69,3.12,3.12,0,0,1,.6,1.09,4.36,4.36,0,0,1,.2,1.39A4.43,4.43,0,0,1,143,32a3,3,0,0,1-.6,1.07,2.59,2.59,0,0,1-1,.7,3.35,3.35,0,0,1-1.35.25,3.44,3.44,0,0,1-1.36-.25,2.48,2.48,0,0,1-1-.7,3.05,3.05,0,0,1-.61-1.07A4.73,4.73,0,0,1,136.91,30.59Zm1.29,0a4.55,4.55,0,0,0,.1,1,2.65,2.65,0,0,0,.34.8,1.53,1.53,0,0,0,.58.52,1.93,1.93,0,0,0,1.67,0,1.53,1.53,0,0,0,.58-.52,2.42,2.42,0,0,0,.34-.8,4.65,4.65,0,0,0,0-2,2.32,2.32,0,0,0-.33-.8,1.63,1.63,0,0,0-.58-.53,1.74,1.74,0,0,0-.84-.19,1.68,1.68,0,0,0-.84.19,1.55,1.55,0,0,0-.58.53,2.54,2.54,0,0,0-.34.8A4.52,4.52,0,0,0,138.2,30.59Zm1.26-3.89a.31.31,0,0,1-.21.08.24.24,0,0,1-.24-.24.3.3,0,0,1,.05-.15L140.21,25a.34.34,0,0,1,.14-.13.32.32,0,0,1,.16,0,.41.41,0,0,1,.19,0,.57.57,0,0,1,.16.11.61.61,0,0,1,.12.16.39.39,0,0,1,0,.18.37.37,0,0,1-.12.26Z"/><path class="cls-11" d="M144.36,28a1,1,0,0,1,0-.31.55.55,0,0,1,.14-.22.49.49,0,0,1,.21-.14.53.53,0,0,1,.25-.05.84.84,0,0,1,.34.08.88.88,0,0,1,.31.27l3.19,4.58V27.83a.51.51,0,0,1,0-.22.52.52,0,0,1,.12-.17.51.51,0,0,1,.18-.09.45.45,0,0,1,.2,0,.63.63,0,0,1,.19,0,.69.69,0,0,1,.17.1.52.52,0,0,1,.12.17.51.51,0,0,1,0,.22v5.31a.78.78,0,0,1-.06.31.64.64,0,0,1-.14.22.6.6,0,0,1-.21.14.58.58,0,0,1-.26,0,.88.88,0,0,1-.34-.08,1,1,0,0,1-.31-.27L145.43,29v4.4a.4.4,0,0,1-.05.22.48.48,0,0,1-.12.16.42.42,0,0,1-.17.1.68.68,0,0,1-.4,0,.42.42,0,0,1-.17-.1.4.4,0,0,1-.12-.16.48.48,0,0,1,0-.22Z"/></svg>